<mxfile host="app.diagrams.net" agent="Mozilla/5.0 (Windows NT 10.0; Win64; x64) AppleWebKit/537.36 (KHTML, like Gecko) Chrome/130.0.0.0 Safari/537.36 Edg/130.0.0.0" version="24.8.0">
  <diagram name="第 1 页" id="EjcDb8vZrtrxUT8pf2Qq">
    <mxGraphModel dx="1141" dy="1834" grid="1" gridSize="10" guides="1" tooltips="1" connect="1" arrows="1" fold="1" page="1" pageScale="1" pageWidth="827" pageHeight="1169" math="0" shadow="0">
      <root>
        <mxCell id="0" />
        <mxCell id="1" parent="0" />
        <mxCell id="zbdh6VpdfGGvIS89XVBJ-1" value="pop" style="rounded=1;whiteSpace=wrap;html=1;" parent="1" vertex="1">
          <mxGeometry x="81" y="-640" width="40" height="10" as="geometry" />
        </mxCell>
        <mxCell id="zbdh6VpdfGGvIS89XVBJ-4" value="pop" style="rounded=1;whiteSpace=wrap;html=1;" parent="1" vertex="1">
          <mxGeometry x="161" y="-640" width="40" height="10" as="geometry" />
        </mxCell>
        <mxCell id="zbdh6VpdfGGvIS89XVBJ-5" value="" style="rounded=1;whiteSpace=wrap;html=1;" parent="1" vertex="1">
          <mxGeometry x="201" y="-640" width="80" height="10" as="geometry" />
        </mxCell>
        <mxCell id="zbdh6VpdfGGvIS89XVBJ-6" value="x0" style="rounded=1;whiteSpace=wrap;html=1;" parent="1" vertex="1">
          <mxGeometry x="81" y="-600" width="40" height="10" as="geometry" />
        </mxCell>
        <mxCell id="zbdh6VpdfGGvIS89XVBJ-7" value="x1" style="rounded=1;whiteSpace=wrap;html=1;" parent="1" vertex="1">
          <mxGeometry x="121" y="-600" width="80" height="10" as="geometry" />
        </mxCell>
        <mxCell id="zbdh6VpdfGGvIS89XVBJ-11" value="0" style="rounded=1;whiteSpace=wrap;html=1;" parent="1" vertex="1">
          <mxGeometry x="81" y="279" width="40" height="10" as="geometry" />
        </mxCell>
        <mxCell id="zbdh6VpdfGGvIS89XVBJ-12" value="1" style="rounded=1;whiteSpace=wrap;html=1;" parent="1" vertex="1">
          <mxGeometry x="121" y="279" width="40" height="10" as="geometry" />
        </mxCell>
        <mxCell id="zbdh6VpdfGGvIS89XVBJ-13" value="0" style="rounded=1;whiteSpace=wrap;html=1;" parent="1" vertex="1">
          <mxGeometry x="161" y="279" width="40" height="10" as="geometry" />
        </mxCell>
        <mxCell id="zbdh6VpdfGGvIS89XVBJ-15" value="1" style="rounded=1;whiteSpace=wrap;html=1;" parent="1" vertex="1">
          <mxGeometry x="241" y="279" width="40" height="10" as="geometry" />
        </mxCell>
        <mxCell id="zbdh6VpdfGGvIS89XVBJ-21" value="0" style="rounded=1;whiteSpace=wrap;html=1;" parent="1" vertex="1">
          <mxGeometry x="81" y="319" width="40" height="10" as="geometry" />
        </mxCell>
        <mxCell id="zbdh6VpdfGGvIS89XVBJ-22" value="0" style="rounded=1;whiteSpace=wrap;html=1;" parent="1" vertex="1">
          <mxGeometry x="121" y="319" width="40" height="10" as="geometry" />
        </mxCell>
        <mxCell id="zbdh6VpdfGGvIS89XVBJ-23" value="1" style="rounded=1;whiteSpace=wrap;html=1;" parent="1" vertex="1">
          <mxGeometry x="161" y="319" width="40" height="10" as="geometry" />
        </mxCell>
        <mxCell id="zbdh6VpdfGGvIS89XVBJ-24" value="0" style="rounded=1;whiteSpace=wrap;html=1;" parent="1" vertex="1">
          <mxGeometry x="201" y="319" width="40" height="10" as="geometry" />
        </mxCell>
        <mxCell id="zbdh6VpdfGGvIS89XVBJ-25" value="1" style="rounded=1;whiteSpace=wrap;html=1;" parent="1" vertex="1">
          <mxGeometry x="241" y="319" width="40" height="10" as="geometry" />
        </mxCell>
        <mxCell id="zbdh6VpdfGGvIS89XVBJ-31" value="x_data" style="text;html=1;align=center;verticalAlign=middle;whiteSpace=wrap;rounded=0;" parent="1" vertex="1">
          <mxGeometry x="11" y="-610" width="60" height="30" as="geometry" />
        </mxCell>
        <mxCell id="zbdh6VpdfGGvIS89XVBJ-32" value="X" style="rounded=1;whiteSpace=wrap;html=1;" parent="1" vertex="1">
          <mxGeometry x="81" y="-560" width="40" height="10" as="geometry" />
        </mxCell>
        <mxCell id="zbdh6VpdfGGvIS89XVBJ-33" value="x0" style="rounded=1;whiteSpace=wrap;html=1;" parent="1" vertex="1">
          <mxGeometry x="121" y="-560" width="40" height="10" as="geometry" />
        </mxCell>
        <mxCell id="zbdh6VpdfGGvIS89XVBJ-34" value="x1" style="rounded=1;whiteSpace=wrap;html=1;" parent="1" vertex="1">
          <mxGeometry x="161" y="-560" width="80" height="10" as="geometry" />
        </mxCell>
        <mxCell id="zbdh6VpdfGGvIS89XVBJ-36" value="x2" style="rounded=1;whiteSpace=wrap;html=1;" parent="1" vertex="1">
          <mxGeometry x="241" y="-560" width="120" height="10" as="geometry" />
        </mxCell>
        <mxCell id="zbdh6VpdfGGvIS89XVBJ-37" value="latch_final" style="text;html=1;align=center;verticalAlign=middle;whiteSpace=wrap;rounded=0;" parent="1" vertex="1">
          <mxGeometry x="11" y="-570" width="60" height="30" as="geometry" />
        </mxCell>
        <mxCell id="zbdh6VpdfGGvIS89XVBJ-38" value="sram_ptr" style="text;html=1;align=center;verticalAlign=middle;whiteSpace=wrap;rounded=0;" parent="1" vertex="1">
          <mxGeometry x="11" y="269" width="60" height="30" as="geometry" />
        </mxCell>
        <mxCell id="zbdh6VpdfGGvIS89XVBJ-39" value="tap_ptr" style="text;html=1;align=center;verticalAlign=middle;whiteSpace=wrap;rounded=0;" parent="1" vertex="1">
          <mxGeometry x="11" y="309" width="60" height="30" as="geometry" />
        </mxCell>
        <mxCell id="7OSFac52b7fZNywMgHIq-132" style="edgeStyle=none;curved=1;rounded=0;orthogonalLoop=1;jettySize=auto;html=1;exitX=0.5;exitY=0;exitDx=0;exitDy=0;fontSize=12;startSize=8;endSize=8;" edge="1" parent="1" source="zbdh6VpdfGGvIS89XVBJ-41" target="7OSFac52b7fZNywMgHIq-129">
          <mxGeometry relative="1" as="geometry" />
        </mxCell>
        <mxCell id="zbdh6VpdfGGvIS89XVBJ-41" value="0" style="rounded=1;whiteSpace=wrap;html=1;" parent="1" vertex="1">
          <mxGeometry x="81" y="-441" width="40" height="10" as="geometry" />
        </mxCell>
        <mxCell id="zbdh6VpdfGGvIS89XVBJ-42" value="1" style="rounded=1;whiteSpace=wrap;html=1;" parent="1" vertex="1">
          <mxGeometry x="121" y="-441" width="80" height="10" as="geometry" />
        </mxCell>
        <mxCell id="zbdh6VpdfGGvIS89XVBJ-45" value="3" style="rounded=1;whiteSpace=wrap;html=1;" parent="1" vertex="1">
          <mxGeometry x="321" y="-441" width="40" height="10" as="geometry" />
        </mxCell>
        <mxCell id="zbdh6VpdfGGvIS89XVBJ-46" value="xram_addr" style="text;html=1;align=center;verticalAlign=middle;whiteSpace=wrap;rounded=0;" parent="1" vertex="1">
          <mxGeometry x="11" y="-451" width="60" height="30" as="geometry" />
        </mxCell>
        <mxCell id="zbdh6VpdfGGvIS89XVBJ-53" value="1" style="rounded=1;whiteSpace=wrap;html=1;fillColor=#fff2cc;strokeColor=#d6b656;" parent="1" vertex="1">
          <mxGeometry x="81" y="-520" width="40" height="10" as="geometry" />
        </mxCell>
        <mxCell id="zbdh6VpdfGGvIS89XVBJ-54" value="1" style="rounded=1;whiteSpace=wrap;html=1;fillColor=#fff2cc;strokeColor=#d6b656;" parent="1" vertex="1">
          <mxGeometry x="121" y="-520" width="40" height="10" as="geometry" />
        </mxCell>
        <mxCell id="zbdh6VpdfGGvIS89XVBJ-55" value="0" style="rounded=1;whiteSpace=wrap;html=1;fillColor=#fff2cc;strokeColor=#d6b656;" parent="1" vertex="1">
          <mxGeometry x="161" y="-520" width="40" height="10" as="geometry" />
        </mxCell>
        <mxCell id="zbdh6VpdfGGvIS89XVBJ-56" value="1" style="rounded=1;whiteSpace=wrap;html=1;fillColor=#fff2cc;strokeColor=#d6b656;" parent="1" vertex="1">
          <mxGeometry x="201" y="-520" width="40" height="10" as="geometry" />
        </mxCell>
        <mxCell id="zbdh6VpdfGGvIS89XVBJ-57" value="0" style="rounded=1;whiteSpace=wrap;html=1;fillColor=#fff2cc;strokeColor=#d6b656;" parent="1" vertex="1">
          <mxGeometry x="241" y="-520" width="40" height="10" as="geometry" />
        </mxCell>
        <mxCell id="zbdh6VpdfGGvIS89XVBJ-58" value="sram_we" style="text;html=1;align=center;verticalAlign=middle;whiteSpace=wrap;rounded=0;" parent="1" vertex="1">
          <mxGeometry x="11" y="-530" width="60" height="30" as="geometry" />
        </mxCell>
        <mxCell id="zbdh6VpdfGGvIS89XVBJ-59" value="0" style="rounded=1;whiteSpace=wrap;html=1;" parent="1" vertex="1">
          <mxGeometry x="281" y="279" width="40" height="10" as="geometry" />
        </mxCell>
        <mxCell id="zbdh6VpdfGGvIS89XVBJ-60" value="2" style="rounded=1;whiteSpace=wrap;html=1;" parent="1" vertex="1">
          <mxGeometry x="281" y="319" width="40" height="10" as="geometry" />
        </mxCell>
        <mxCell id="zbdh6VpdfGGvIS89XVBJ-66" value="0" style="rounded=1;whiteSpace=wrap;html=1;fillColor=#fff2cc;strokeColor=#d6b656;" parent="1" vertex="1">
          <mxGeometry x="281" y="-520" width="40" height="10" as="geometry" />
        </mxCell>
        <mxCell id="zbdh6VpdfGGvIS89XVBJ-68" value="0" style="rounded=1;whiteSpace=wrap;html=1;" parent="1" vertex="1">
          <mxGeometry x="321" y="319" width="40" height="10" as="geometry" />
        </mxCell>
        <mxCell id="zbdh6VpdfGGvIS89XVBJ-71" value="" style="rounded=1;whiteSpace=wrap;html=1;" parent="1" vertex="1">
          <mxGeometry x="321" y="-640" width="40" height="10" as="geometry" />
        </mxCell>
        <mxCell id="zbdh6VpdfGGvIS89XVBJ-74" value="1" style="rounded=1;whiteSpace=wrap;html=1;fillColor=#fff2cc;strokeColor=#d6b656;" parent="1" vertex="1">
          <mxGeometry x="321" y="-520" width="40" height="10" as="geometry" />
        </mxCell>
        <mxCell id="zbdh6VpdfGGvIS89XVBJ-100" value="" style="rounded=1;whiteSpace=wrap;html=1;" parent="1" vertex="1">
          <mxGeometry x="121" y="-640" width="40" height="10" as="geometry" />
        </mxCell>
        <mxCell id="zbdh6VpdfGGvIS89XVBJ-109" value="2" style="rounded=1;whiteSpace=wrap;html=1;" parent="1" vertex="1">
          <mxGeometry x="201" y="-441" width="120" height="10" as="geometry" />
        </mxCell>
        <mxCell id="7OSFac52b7fZNywMgHIq-19" style="edgeStyle=none;curved=1;rounded=0;orthogonalLoop=1;jettySize=auto;html=1;exitX=0.5;exitY=1;exitDx=0;exitDy=0;entryX=0.5;entryY=0;entryDx=0;entryDy=0;fontSize=12;startSize=8;endSize=8;" edge="1" parent="1">
          <mxGeometry relative="1" as="geometry">
            <mxPoint x="621" y="-630" as="sourcePoint" />
            <mxPoint x="661" y="-600" as="targetPoint" />
          </mxGeometry>
        </mxCell>
        <mxCell id="lEjgdPn8LzuLTRAEh8SZ-2" value="pop" style="rounded=1;whiteSpace=wrap;html=1;" parent="1" vertex="1">
          <mxGeometry x="441" y="-640" width="40" height="10" as="geometry" />
        </mxCell>
        <mxCell id="lEjgdPn8LzuLTRAEh8SZ-3" value="x10" style="rounded=1;whiteSpace=wrap;html=1;" parent="1" vertex="1">
          <mxGeometry x="441" y="-600" width="40" height="10" as="geometry" />
        </mxCell>
        <mxCell id="lEjgdPn8LzuLTRAEh8SZ-5" value="9" style="rounded=1;whiteSpace=wrap;html=1;" parent="1" vertex="1">
          <mxGeometry x="442" y="319" width="40" height="10" as="geometry" />
        </mxCell>
        <mxCell id="lEjgdPn8LzuLTRAEh8SZ-7" value="10" style="rounded=1;whiteSpace=wrap;html=1;" parent="1" vertex="1">
          <mxGeometry x="441" y="-441" width="40" height="10" as="geometry" />
        </mxCell>
        <mxCell id="lEjgdPn8LzuLTRAEh8SZ-8" value="0" style="rounded=1;whiteSpace=wrap;html=1;fillColor=#fff2cc;strokeColor=#d6b656;" parent="1" vertex="1">
          <mxGeometry x="441" y="-520" width="40" height="10" as="geometry" />
        </mxCell>
        <mxCell id="lEjgdPn8LzuLTRAEh8SZ-9" value="" style="endArrow=none;dashed=1;html=1;dashPattern=1 3;strokeWidth=2;rounded=0;exitX=1;exitY=0.5;exitDx=0;exitDy=0;entryX=0;entryY=0.5;entryDx=0;entryDy=0;fillColor=#fff2cc;strokeColor=#d6b656;" parent="1" edge="1" target="lEjgdPn8LzuLTRAEh8SZ-8" source="zbdh6VpdfGGvIS89XVBJ-74">
          <mxGeometry width="50" height="50" relative="1" as="geometry">
            <mxPoint x="371" y="-515.29" as="sourcePoint" />
            <mxPoint x="425" y="-515" as="targetPoint" />
          </mxGeometry>
        </mxCell>
        <mxCell id="lEjgdPn8LzuLTRAEh8SZ-10" value="" style="endArrow=none;dashed=1;html=1;dashPattern=1 3;strokeWidth=2;rounded=0;entryX=0;entryY=0.5;entryDx=0;entryDy=0;exitX=1;exitY=0.5;exitDx=0;exitDy=0;" parent="1" edge="1">
          <mxGeometry width="50" height="50" relative="1" as="geometry">
            <mxPoint x="361" y="284" as="sourcePoint" />
            <mxPoint x="441.9999999999998" y="284" as="targetPoint" />
          </mxGeometry>
        </mxCell>
        <mxCell id="lEjgdPn8LzuLTRAEh8SZ-11" value="" style="endArrow=none;dashed=1;html=1;dashPattern=1 3;strokeWidth=2;rounded=0;exitX=1;exitY=0.5;exitDx=0;exitDy=0;entryX=0;entryY=0.5;entryDx=0;entryDy=0;" parent="1" edge="1" target="lEjgdPn8LzuLTRAEh8SZ-5" source="zbdh6VpdfGGvIS89XVBJ-68">
          <mxGeometry width="50" height="50" relative="1" as="geometry">
            <mxPoint x="371" y="324" as="sourcePoint" />
            <mxPoint x="425" y="324.28999999999996" as="targetPoint" />
          </mxGeometry>
        </mxCell>
        <mxCell id="lEjgdPn8LzuLTRAEh8SZ-12" value="" style="endArrow=none;dashed=1;html=1;dashPattern=1 3;strokeWidth=2;rounded=0;exitX=1;exitY=0.5;exitDx=0;exitDy=0;entryX=0;entryY=0.5;entryDx=0;entryDy=0;" parent="1" edge="1" target="lEjgdPn8LzuLTRAEh8SZ-7" source="zbdh6VpdfGGvIS89XVBJ-45">
          <mxGeometry width="50" height="50" relative="1" as="geometry">
            <mxPoint x="381" y="-436" as="sourcePoint" />
            <mxPoint x="435" y="-435.71" as="targetPoint" />
          </mxGeometry>
        </mxCell>
        <mxCell id="lEjgdPn8LzuLTRAEh8SZ-14" value="" style="endArrow=none;dashed=1;html=1;dashPattern=1 3;strokeWidth=2;rounded=0;exitX=1;exitY=0.5;exitDx=0;exitDy=0;entryX=0;entryY=0.5;entryDx=0;entryDy=0;" parent="1" edge="1" target="lEjgdPn8LzuLTRAEh8SZ-2" source="zbdh6VpdfGGvIS89XVBJ-71">
          <mxGeometry width="50" height="50" relative="1" as="geometry">
            <mxPoint x="371" y="-635.86" as="sourcePoint" />
            <mxPoint x="425" y="-635.5699999999999" as="targetPoint" />
          </mxGeometry>
        </mxCell>
        <mxCell id="lEjgdPn8LzuLTRAEh8SZ-15" value="" style="endArrow=none;dashed=1;html=1;dashPattern=1 3;strokeWidth=2;rounded=0;exitX=1;exitY=0.5;exitDx=0;exitDy=0;entryX=0;entryY=0.5;entryDx=0;entryDy=0;" parent="1" edge="1" target="lEjgdPn8LzuLTRAEh8SZ-3">
          <mxGeometry width="50" height="50" relative="1" as="geometry">
            <mxPoint x="361" y="-595" as="sourcePoint" />
            <mxPoint x="425" y="-595.28" as="targetPoint" />
          </mxGeometry>
        </mxCell>
        <mxCell id="lEjgdPn8LzuLTRAEh8SZ-16" value="" style="endArrow=none;dashed=1;html=1;dashPattern=1 3;strokeWidth=2;rounded=0;exitX=1;exitY=0.5;exitDx=0;exitDy=0;entryX=0;entryY=0.5;entryDx=0;entryDy=0;" parent="1" edge="1" source="zbdh6VpdfGGvIS89XVBJ-36">
          <mxGeometry width="50" height="50" relative="1" as="geometry">
            <mxPoint x="371" y="-555.5699999999999" as="sourcePoint" />
            <mxPoint x="441" y="-555" as="targetPoint" />
          </mxGeometry>
        </mxCell>
        <mxCell id="7OSFac52b7fZNywMgHIq-23" style="edgeStyle=none;curved=1;rounded=0;orthogonalLoop=1;jettySize=auto;html=1;exitX=0.5;exitY=1;exitDx=0;exitDy=0;entryX=0.5;entryY=0;entryDx=0;entryDy=0;fontSize=12;startSize=8;endSize=8;" edge="1" parent="1">
          <mxGeometry relative="1" as="geometry">
            <mxPoint x="661" y="-590" as="sourcePoint" />
            <mxPoint x="701" y="-560" as="targetPoint" />
          </mxGeometry>
        </mxCell>
        <mxCell id="lEjgdPn8LzuLTRAEh8SZ-17" value="x11" style="rounded=1;whiteSpace=wrap;html=1;arcSize=0;" parent="1" vertex="1">
          <mxGeometry x="481" y="-600" width="40" height="10" as="geometry" />
        </mxCell>
        <mxCell id="lEjgdPn8LzuLTRAEh8SZ-18" value="0" style="rounded=1;whiteSpace=wrap;html=1;" parent="1" vertex="1">
          <mxGeometry x="481" y="-441" width="40" height="10" as="geometry" />
        </mxCell>
        <mxCell id="7OSFac52b7fZNywMgHIq-1" value="1" style="rounded=1;whiteSpace=wrap;html=1;fillColor=#fff2cc;strokeColor=#d6b656;" vertex="1" parent="1">
          <mxGeometry x="481" y="-520" width="40" height="10" as="geometry" />
        </mxCell>
        <mxCell id="7OSFac52b7fZNywMgHIq-2" value="" style="endArrow=none;dashed=1;html=1;dashPattern=1 3;strokeWidth=2;rounded=0;entryX=0;entryY=0.5;entryDx=0;entryDy=0;exitX=1;exitY=0.5;exitDx=0;exitDy=0;" edge="1" parent="1" source="lEjgdPn8LzuLTRAEh8SZ-17" target="7OSFac52b7fZNywMgHIq-21">
          <mxGeometry width="50" height="50" relative="1" as="geometry">
            <mxPoint x="531" y="-595.34" as="sourcePoint" />
            <mxPoint x="591" y="-595" as="targetPoint" />
          </mxGeometry>
        </mxCell>
        <mxCell id="7OSFac52b7fZNywMgHIq-3" value="x12" style="rounded=1;whiteSpace=wrap;html=1;arcSize=0;" vertex="1" parent="1">
          <mxGeometry x="641" y="-600" width="80" height="10" as="geometry" />
        </mxCell>
        <mxCell id="7OSFac52b7fZNywMgHIq-5" value="" style="endArrow=none;dashed=1;html=1;dashPattern=1 3;strokeWidth=2;rounded=0;fillColor=#fff2cc;strokeColor=#d6b656;" edge="1" parent="1">
          <mxGeometry width="50" height="50" relative="1" as="geometry">
            <mxPoint x="531" y="-516" as="sourcePoint" />
            <mxPoint x="585" y="-515.71" as="targetPoint" />
          </mxGeometry>
        </mxCell>
        <mxCell id="7OSFac52b7fZNywMgHIq-6" value="" style="endArrow=none;dashed=1;html=1;dashPattern=1 3;strokeWidth=2;rounded=0;exitX=1;exitY=0.5;exitDx=0;exitDy=0;entryX=0;entryY=0.5;entryDx=0;entryDy=0;" edge="1" parent="1" source="7OSFac52b7fZNywMgHIq-112" target="7OSFac52b7fZNywMgHIq-120">
          <mxGeometry width="50" height="50" relative="1" as="geometry">
            <mxPoint x="541" y="284.97" as="sourcePoint" />
            <mxPoint x="595" y="285.26" as="targetPoint" />
          </mxGeometry>
        </mxCell>
        <mxCell id="7OSFac52b7fZNywMgHIq-7" value="" style="endArrow=none;dashed=1;html=1;dashPattern=1 3;strokeWidth=2;rounded=0;exitX=1;exitY=0.5;exitDx=0;exitDy=0;entryX=0;entryY=0.5;entryDx=0;entryDy=0;" edge="1" parent="1" source="7OSFac52b7fZNywMgHIq-113" target="7OSFac52b7fZNywMgHIq-122">
          <mxGeometry width="50" height="50" relative="1" as="geometry">
            <mxPoint x="541" y="323.97" as="sourcePoint" />
            <mxPoint x="595" y="324.26" as="targetPoint" />
          </mxGeometry>
        </mxCell>
        <mxCell id="7OSFac52b7fZNywMgHIq-8" value="" style="endArrow=none;dashed=1;html=1;dashPattern=1 3;strokeWidth=2;rounded=0;exitX=1;exitY=0.5;exitDx=0;exitDy=0;entryX=0;entryY=0.5;entryDx=0;entryDy=0;" edge="1" parent="1" source="lEjgdPn8LzuLTRAEh8SZ-18" target="7OSFac52b7fZNywMgHIq-46">
          <mxGeometry width="50" height="50" relative="1" as="geometry">
            <mxPoint x="533" y="-436.69" as="sourcePoint" />
            <mxPoint x="587" y="-436.4" as="targetPoint" />
          </mxGeometry>
        </mxCell>
        <mxCell id="7OSFac52b7fZNywMgHIq-9" value="pop" style="rounded=1;whiteSpace=wrap;html=1;" vertex="1" parent="1">
          <mxGeometry x="601" y="-640" width="40" height="10" as="geometry" />
        </mxCell>
        <mxCell id="7OSFac52b7fZNywMgHIq-12" value="" style="endArrow=none;dashed=1;html=1;dashPattern=1 3;strokeWidth=2;rounded=0;exitX=1;exitY=0.5;exitDx=0;exitDy=0;entryX=0;entryY=0.5;entryDx=0;entryDy=0;" edge="1" parent="1" source="7OSFac52b7fZNywMgHIq-18" target="7OSFac52b7fZNywMgHIq-9">
          <mxGeometry width="50" height="50" relative="1" as="geometry">
            <mxPoint x="531" y="-635.34" as="sourcePoint" />
            <mxPoint x="585" y="-635.05" as="targetPoint" />
          </mxGeometry>
        </mxCell>
        <mxCell id="7OSFac52b7fZNywMgHIq-14" value="0" style="rounded=1;whiteSpace=wrap;html=1;fillColor=#fff2cc;strokeColor=#d6b656;" vertex="1" parent="1">
          <mxGeometry x="601" y="-520" width="40" height="10" as="geometry" />
        </mxCell>
        <mxCell id="7OSFac52b7fZNywMgHIq-15" value="" style="endArrow=classic;html=1;rounded=0;fontSize=12;startSize=8;endSize=8;curved=1;entryX=0.5;entryY=0;entryDx=0;entryDy=0;" edge="1" parent="1" target="lEjgdPn8LzuLTRAEh8SZ-2">
          <mxGeometry width="50" height="50" relative="1" as="geometry">
            <mxPoint x="461" y="-690" as="sourcePoint" />
            <mxPoint x="511" y="-740" as="targetPoint" />
          </mxGeometry>
        </mxCell>
        <mxCell id="7OSFac52b7fZNywMgHIq-17" value="&lt;p style=&quot;line-height: 100%;&quot;&gt;&lt;font style=&quot;font-size: 8px;&quot;&gt;&lt;b&gt;Calculate last data pop&lt;/b&gt;&lt;/font&gt;&lt;/p&gt;" style="text;html=1;align=center;verticalAlign=middle;whiteSpace=wrap;rounded=0;fontSize=16;fillColor=#f8cecc;strokeColor=#b85450;" vertex="1" parent="1">
          <mxGeometry x="396" y="-700" width="130" height="10" as="geometry" />
        </mxCell>
        <mxCell id="7OSFac52b7fZNywMgHIq-18" value="" style="rounded=1;whiteSpace=wrap;html=1;" vertex="1" parent="1">
          <mxGeometry x="481" y="-640" width="40" height="10" as="geometry" />
        </mxCell>
        <mxCell id="7OSFac52b7fZNywMgHIq-20" value="x10" style="rounded=1;whiteSpace=wrap;html=1;" vertex="1" parent="1">
          <mxGeometry x="441" y="-560" width="80" height="10" as="geometry" />
        </mxCell>
        <mxCell id="7OSFac52b7fZNywMgHIq-21" value="x11" style="rounded=1;whiteSpace=wrap;html=1;arcSize=0;" vertex="1" parent="1">
          <mxGeometry x="601" y="-600" width="40" height="10" as="geometry" />
        </mxCell>
        <mxCell id="7OSFac52b7fZNywMgHIq-22" style="edgeStyle=none;curved=1;rounded=0;orthogonalLoop=1;jettySize=auto;html=1;exitX=0.5;exitY=1;exitDx=0;exitDy=0;entryX=0.5;entryY=0;entryDx=0;entryDy=0;fontSize=12;startSize=8;endSize=8;" edge="1" parent="1">
          <mxGeometry relative="1" as="geometry">
            <mxPoint x="101" y="-630" as="sourcePoint" />
            <mxPoint x="141" y="-600" as="targetPoint" />
          </mxGeometry>
        </mxCell>
        <mxCell id="7OSFac52b7fZNywMgHIq-24" value="1" style="rounded=1;whiteSpace=wrap;html=1;fillColor=#fff2cc;strokeColor=#d6b656;" vertex="1" parent="1">
          <mxGeometry x="641" y="-520" width="40" height="10" as="geometry" />
        </mxCell>
        <mxCell id="7OSFac52b7fZNywMgHIq-25" value="x11" style="rounded=1;whiteSpace=wrap;html=1;arcSize=0;" vertex="1" parent="1">
          <mxGeometry x="601" y="-560" width="80" height="10" as="geometry" />
        </mxCell>
        <mxCell id="7OSFac52b7fZNywMgHIq-26" value="x12" style="rounded=1;whiteSpace=wrap;html=1;arcSize=0;" vertex="1" parent="1">
          <mxGeometry x="681" y="-560" width="40" height="10" as="geometry" />
        </mxCell>
        <mxCell id="7OSFac52b7fZNywMgHIq-27" value="" style="endArrow=none;dashed=1;html=1;dashPattern=1 3;strokeWidth=2;rounded=0;entryX=0;entryY=0.5;entryDx=0;entryDy=0;exitX=1;exitY=0.5;exitDx=0;exitDy=0;" edge="1" parent="1" source="7OSFac52b7fZNywMgHIq-20" target="7OSFac52b7fZNywMgHIq-25">
          <mxGeometry width="50" height="50" relative="1" as="geometry">
            <mxPoint x="561" y="-555" as="sourcePoint" />
            <mxPoint x="591" y="-560" as="targetPoint" />
          </mxGeometry>
        </mxCell>
        <mxCell id="7OSFac52b7fZNywMgHIq-28" value="" style="shape=flexArrow;endArrow=classic;html=1;rounded=0;fontSize=12;startSize=8;endSize=8;curved=1;fillColor=#f8cecc;strokeColor=#b85450;" edge="1" parent="1">
          <mxGeometry width="50" height="50" relative="1" as="geometry">
            <mxPoint x="660.66" y="-416" as="sourcePoint" />
            <mxPoint x="660.9271428571428" y="-361" as="targetPoint" />
          </mxGeometry>
        </mxCell>
        <mxCell id="7OSFac52b7fZNywMgHIq-32" value="&lt;h1 style=&quot;margin-top: 0px;&quot;&gt;Important Clock&lt;/h1&gt;&lt;p&gt;for this cycle :&amp;nbsp;&lt;/p&gt;&lt;p&gt;1. xdata will input to PE Calculate the result&lt;/p&gt;&lt;p&gt;2. latch_final will write the SRAM (addr : xram_addr - 1)&lt;/p&gt;&lt;p&gt;3. xdata will write latch_final&lt;/p&gt;&lt;p&gt;4. output result.&lt;/p&gt;&lt;p style=&quot;font-size: 16px;&quot;&gt;(I think that it can implementation in FSM)&lt;/p&gt;" style="text;html=1;whiteSpace=wrap;overflow=hidden;rounded=0;" vertex="1" parent="1">
          <mxGeometry x="461" y="-360" width="330" height="200" as="geometry" />
        </mxCell>
        <mxCell id="7OSFac52b7fZNywMgHIq-35" value="pop" style="text;html=1;align=center;verticalAlign=middle;whiteSpace=wrap;rounded=0;" vertex="1" parent="1">
          <mxGeometry x="14" y="-650" width="60" height="30" as="geometry" />
        </mxCell>
        <mxCell id="7OSFac52b7fZNywMgHIq-39" value="" style="rounded=1;whiteSpace=wrap;html=1;" vertex="1" parent="1">
          <mxGeometry x="641" y="-640" width="40" height="10" as="geometry" />
        </mxCell>
        <mxCell id="7OSFac52b7fZNywMgHIq-41" value="" style="rounded=1;whiteSpace=wrap;html=1;" vertex="1" parent="1">
          <mxGeometry x="681" y="-640" width="40" height="10" as="geometry" />
        </mxCell>
        <mxCell id="7OSFac52b7fZNywMgHIq-42" value="0" style="rounded=1;whiteSpace=wrap;html=1;fillColor=#fff2cc;strokeColor=#d6b656;" vertex="1" parent="1">
          <mxGeometry x="681" y="-520" width="40" height="10" as="geometry" />
        </mxCell>
        <mxCell id="7OSFac52b7fZNywMgHIq-45" value="1" style="rounded=1;whiteSpace=wrap;html=1;" vertex="1" parent="1">
          <mxGeometry x="641" y="-441" width="80" height="10" as="geometry" />
        </mxCell>
        <mxCell id="7OSFac52b7fZNywMgHIq-46" value="0" style="rounded=1;whiteSpace=wrap;html=1;" vertex="1" parent="1">
          <mxGeometry x="601" y="-441" width="40" height="10" as="geometry" />
        </mxCell>
        <mxCell id="7OSFac52b7fZNywMgHIq-52" value="&lt;h1 style=&quot;margin-top: 0px;&quot;&gt;SRAM R/W Clock&lt;/h1&gt;&lt;p&gt;For 11 tap calculate need but only have ten xdata ram. we need latch the input data and write it to sram in next times x_data input.&lt;/p&gt;" style="text;html=1;whiteSpace=wrap;overflow=hidden;rounded=0;" vertex="1" parent="1">
          <mxGeometry x="31" y="-780" width="230" height="120" as="geometry" />
        </mxCell>
        <mxCell id="7OSFac52b7fZNywMgHIq-53" value="&lt;h1 style=&quot;margin-top: 0px;&quot;&gt;Address Generate&lt;/h1&gt;&lt;p&gt;tap_ptr : reset in final tap calculate(so need use xram_addr to judge) , every cycle add one.&lt;/p&gt;&lt;p&gt;stam_ptr : reset in final tap calculate to xram_addr , every cycle sub one.&amp;nbsp;&lt;/p&gt;&lt;p&gt;&lt;br&gt;&lt;/p&gt;&lt;p&gt;&lt;br&gt;&lt;/p&gt;" style="text;html=1;whiteSpace=wrap;overflow=hidden;rounded=0;" vertex="1" parent="1">
          <mxGeometry x="21" y="20" width="220" height="190" as="geometry" />
        </mxCell>
        <mxCell id="7OSFac52b7fZNywMgHIq-91" style="edgeStyle=elbowEdgeStyle;rounded=0;orthogonalLoop=1;jettySize=auto;html=1;exitX=0.5;exitY=1;exitDx=0;exitDy=0;fontSize=12;startSize=8;endSize=8;elbow=vertical;entryX=0.5;entryY=1;entryDx=0;entryDy=0;" edge="1" parent="1" source="7OSFac52b7fZNywMgHIq-82" target="7OSFac52b7fZNywMgHIq-87">
          <mxGeometry relative="1" as="geometry">
            <mxPoint x="380.7586206896551" y="160" as="targetPoint" />
            <Array as="points">
              <mxPoint x="341" y="150" />
            </Array>
          </mxGeometry>
        </mxCell>
        <mxCell id="7OSFac52b7fZNywMgHIq-82" value="AG" style="rounded=0;whiteSpace=wrap;html=1;" vertex="1" parent="1">
          <mxGeometry x="361" y="70" width="40" height="60" as="geometry" />
        </mxCell>
        <mxCell id="7OSFac52b7fZNywMgHIq-83" value="" style="endArrow=classic;html=1;rounded=0;fontSize=12;startSize=8;endSize=8;curved=1;entryX=0;entryY=0.5;entryDx=0;entryDy=0;" edge="1" parent="1" target="7OSFac52b7fZNywMgHIq-82">
          <mxGeometry width="50" height="50" relative="1" as="geometry">
            <mxPoint x="321" y="100" as="sourcePoint" />
            <mxPoint x="291" y="100" as="targetPoint" />
          </mxGeometry>
        </mxCell>
        <mxCell id="7OSFac52b7fZNywMgHIq-84" value="" style="endArrow=classic;html=1;rounded=0;fontSize=12;startSize=8;endSize=8;curved=1;" edge="1" parent="1">
          <mxGeometry width="50" height="50" relative="1" as="geometry">
            <mxPoint x="401" y="80" as="sourcePoint" />
            <mxPoint x="431" y="80" as="targetPoint" />
          </mxGeometry>
        </mxCell>
        <mxCell id="7OSFac52b7fZNywMgHIq-85" value="" style="endArrow=classic;html=1;rounded=0;fontSize=12;startSize=8;endSize=8;curved=1;" edge="1" parent="1">
          <mxGeometry width="50" height="50" relative="1" as="geometry">
            <mxPoint x="401" y="114.65999999999997" as="sourcePoint" />
            <mxPoint x="431" y="114.65999999999997" as="targetPoint" />
          </mxGeometry>
        </mxCell>
        <mxCell id="7OSFac52b7fZNywMgHIq-87" value="&lt;p style=&quot;line-height: 100%;&quot;&gt;&lt;font style=&quot;font-size: 8px;&quot;&gt;xram_addr&lt;/font&gt;&lt;/p&gt;" style="text;html=1;align=center;verticalAlign=middle;whiteSpace=wrap;rounded=0;fontSize=16;fillColor=#dae8fc;strokeColor=#6c8ebf;" vertex="1" parent="1">
          <mxGeometry x="271" y="90" width="50" height="20" as="geometry" />
        </mxCell>
        <mxCell id="7OSFac52b7fZNywMgHIq-89" value="&lt;p style=&quot;line-height: 100%;&quot;&gt;&lt;font style=&quot;font-size: 8px;&quot;&gt;sram_ptr&lt;/font&gt;&lt;/p&gt;" style="text;html=1;align=center;verticalAlign=middle;whiteSpace=wrap;rounded=0;fontSize=16;fillColor=#fff2cc;strokeColor=#d6b656;" vertex="1" parent="1">
          <mxGeometry x="432" y="70" width="50" height="20" as="geometry" />
        </mxCell>
        <mxCell id="7OSFac52b7fZNywMgHIq-90" value="&lt;p style=&quot;line-height: 100%;&quot;&gt;&lt;span style=&quot;font-size: 8px;&quot;&gt;tap_ptr&lt;/span&gt;&lt;/p&gt;" style="text;html=1;align=center;verticalAlign=middle;whiteSpace=wrap;rounded=0;fontSize=16;fillColor=#fff2cc;strokeColor=#d6b656;" vertex="1" parent="1">
          <mxGeometry x="432" y="105" width="50" height="20" as="geometry" />
        </mxCell>
        <mxCell id="7OSFac52b7fZNywMgHIq-99" style="edgeStyle=none;curved=1;rounded=0;orthogonalLoop=1;jettySize=auto;html=1;entryX=0.5;entryY=0;entryDx=0;entryDy=0;fontSize=12;startSize=8;endSize=3;endArrow=block;endFill=1;targetPerimeterSpacing=1;" edge="1" parent="1" source="7OSFac52b7fZNywMgHIq-92" target="7OSFac52b7fZNywMgHIq-98">
          <mxGeometry relative="1" as="geometry" />
        </mxCell>
        <mxCell id="7OSFac52b7fZNywMgHIq-92" value="PE" style="rounded=0;whiteSpace=wrap;html=1;" vertex="1" parent="1">
          <mxGeometry x="161" y="-304" width="40" height="60" as="geometry" />
        </mxCell>
        <mxCell id="7OSFac52b7fZNywMgHIq-110" style="edgeStyle=elbowEdgeStyle;rounded=0;orthogonalLoop=1;jettySize=auto;html=1;exitX=1;exitY=0.5;exitDx=0;exitDy=0;entryX=1;entryY=0.5;entryDx=0;entryDy=0;fontSize=12;startSize=8;endSize=3;endArrow=blockThin;endFill=1;fillColor=#f8cecc;strokeColor=#b85450;" edge="1" parent="1" source="7OSFac52b7fZNywMgHIq-93" target="7OSFac52b7fZNywMgHIq-96">
          <mxGeometry relative="1" as="geometry">
            <Array as="points">
              <mxPoint x="351" y="-314" />
            </Array>
          </mxGeometry>
        </mxCell>
        <mxCell id="7OSFac52b7fZNywMgHIq-93" value="latch_final" style="rounded=0;whiteSpace=wrap;html=1;fillColor=#dae8fc;strokeColor=#6c8ebf;" vertex="1" parent="1">
          <mxGeometry x="256" y="-374" width="80" height="20" as="geometry" />
        </mxCell>
        <mxCell id="7OSFac52b7fZNywMgHIq-102" style="edgeStyle=elbowEdgeStyle;rounded=0;orthogonalLoop=1;jettySize=auto;html=1;fontSize=12;startSize=8;endSize=8;endArrow=none;endFill=0;elbow=vertical;fillColor=#f8cecc;strokeColor=#b85450;" edge="1" parent="1" source="7OSFac52b7fZNywMgHIq-95">
          <mxGeometry relative="1" as="geometry">
            <mxPoint x="231" y="-294" as="targetPoint" />
          </mxGeometry>
        </mxCell>
        <mxCell id="7OSFac52b7fZNywMgHIq-109" style="edgeStyle=none;curved=1;rounded=0;orthogonalLoop=1;jettySize=auto;html=1;exitX=1;exitY=0.5;exitDx=0;exitDy=0;entryX=0;entryY=0.5;entryDx=0;entryDy=0;fontSize=12;startSize=8;endSize=3;endArrow=blockThin;endFill=1;fillColor=#f8cecc;strokeColor=#b85450;" edge="1" parent="1" source="7OSFac52b7fZNywMgHIq-95" target="7OSFac52b7fZNywMgHIq-93">
          <mxGeometry relative="1" as="geometry" />
        </mxCell>
        <mxCell id="7OSFac52b7fZNywMgHIq-95" value="x_data" style="rounded=0;whiteSpace=wrap;html=1;fillColor=#dae8fc;strokeColor=#6c8ebf;" vertex="1" parent="1">
          <mxGeometry x="141" y="-374" width="80" height="20" as="geometry" />
        </mxCell>
        <mxCell id="7OSFac52b7fZNywMgHIq-106" style="edgeStyle=elbowEdgeStyle;rounded=0;orthogonalLoop=1;jettySize=auto;html=1;exitX=0;exitY=0.5;exitDx=0;exitDy=0;entryX=1;entryY=0.5;entryDx=0;entryDy=0;fontSize=12;startSize=8;endSize=8;endArrow=none;endFill=0;" edge="1" parent="1" source="7OSFac52b7fZNywMgHIq-96" target="7OSFac52b7fZNywMgHIq-104">
          <mxGeometry relative="1" as="geometry" />
        </mxCell>
        <mxCell id="7OSFac52b7fZNywMgHIq-96" value="data_ram" style="rounded=0;whiteSpace=wrap;html=1;fillColor=#dae8fc;strokeColor=#6c8ebf;" vertex="1" parent="1">
          <mxGeometry x="261" y="-314" width="70" height="130" as="geometry" />
        </mxCell>
        <mxCell id="7OSFac52b7fZNywMgHIq-100" style="edgeStyle=elbowEdgeStyle;rounded=0;orthogonalLoop=1;jettySize=auto;html=1;exitX=1;exitY=0.5;exitDx=0;exitDy=0;entryX=0;entryY=0.25;entryDx=0;entryDy=0;fontSize=12;startSize=8;endSize=3;endArrow=blockThin;endFill=1;" edge="1" parent="1">
          <mxGeometry relative="1" as="geometry">
            <mxPoint x="121" y="-244" as="sourcePoint" />
            <mxPoint x="161" y="-284" as="targetPoint" />
          </mxGeometry>
        </mxCell>
        <mxCell id="7OSFac52b7fZNywMgHIq-97" value="tap_ram" style="rounded=0;whiteSpace=wrap;html=1;fillColor=#dae8fc;strokeColor=#6c8ebf;" vertex="1" parent="1">
          <mxGeometry x="51" y="-314" width="70" height="130" as="geometry" />
        </mxCell>
        <mxCell id="7OSFac52b7fZNywMgHIq-108" style="edgeStyle=elbowEdgeStyle;rounded=0;orthogonalLoop=1;jettySize=auto;html=1;exitX=1;exitY=0.5;exitDx=0;exitDy=0;entryX=1;entryY=0.75;entryDx=0;entryDy=0;fontSize=12;startSize=8;endSize=3;endArrow=blockThin;endFill=1;" edge="1" parent="1" source="7OSFac52b7fZNywMgHIq-98" target="7OSFac52b7fZNywMgHIq-92">
          <mxGeometry relative="1" as="geometry">
            <Array as="points">
              <mxPoint x="231" y="-234" />
            </Array>
          </mxGeometry>
        </mxCell>
        <mxCell id="7OSFac52b7fZNywMgHIq-111" style="edgeStyle=none;curved=1;rounded=0;orthogonalLoop=1;jettySize=auto;html=1;exitX=0.5;exitY=1;exitDx=0;exitDy=0;fontSize=12;startSize=8;endSize=8;" edge="1" parent="1" source="7OSFac52b7fZNywMgHIq-98">
          <mxGeometry relative="1" as="geometry">
            <mxPoint x="181" y="-154" as="targetPoint" />
          </mxGeometry>
        </mxCell>
        <mxCell id="7OSFac52b7fZNywMgHIq-98" value="result" style="rounded=0;whiteSpace=wrap;html=1;fillColor=#fff2cc;strokeColor=#d6b656;" vertex="1" parent="1">
          <mxGeometry x="141" y="-204" width="80" height="20" as="geometry" />
        </mxCell>
        <mxCell id="7OSFac52b7fZNywMgHIq-104" value="&lt;p style=&quot;line-height: 90%;&quot;&gt;&lt;font style=&quot;font-size: 8px;&quot;&gt;mux&lt;/font&gt;&lt;/p&gt;" style="ellipse;whiteSpace=wrap;html=1;aspect=fixed;" vertex="1" parent="1">
          <mxGeometry x="221" y="-294" width="20" height="20" as="geometry" />
        </mxCell>
        <mxCell id="7OSFac52b7fZNywMgHIq-107" style="edgeStyle=none;curved=1;rounded=0;orthogonalLoop=1;jettySize=auto;html=1;exitX=0;exitY=0.5;exitDx=0;exitDy=0;entryX=1.013;entryY=0.337;entryDx=0;entryDy=0;entryPerimeter=0;fontSize=12;startSize=8;endSize=3;endArrow=blockThin;endFill=1;" edge="1" parent="1" source="7OSFac52b7fZNywMgHIq-104" target="7OSFac52b7fZNywMgHIq-92">
          <mxGeometry relative="1" as="geometry" />
        </mxCell>
        <mxCell id="7OSFac52b7fZNywMgHIq-112" value="0" style="rounded=1;whiteSpace=wrap;html=1;" vertex="1" parent="1">
          <mxGeometry x="482" y="279" width="40" height="10" as="geometry" />
        </mxCell>
        <mxCell id="7OSFac52b7fZNywMgHIq-113" value="0" style="rounded=1;whiteSpace=wrap;html=1;" vertex="1" parent="1">
          <mxGeometry x="482" y="319" width="40" height="10" as="geometry" />
        </mxCell>
        <mxCell id="7OSFac52b7fZNywMgHIq-115" value="1" style="rounded=1;whiteSpace=wrap;html=1;" vertex="1" parent="1">
          <mxGeometry x="641" y="280" width="40" height="10" as="geometry" />
        </mxCell>
        <mxCell id="7OSFac52b7fZNywMgHIq-33" value="" style="endArrow=none;html=1;rounded=0;fontSize=12;startSize=8;endSize=8;curved=1;fillColor=#f8cecc;strokeColor=#b85450;strokeWidth=3;" edge="1" parent="1">
          <mxGeometry width="50" height="50" relative="1" as="geometry">
            <mxPoint x="641" y="-430" as="sourcePoint" />
            <mxPoint x="641" y="-670" as="targetPoint" />
          </mxGeometry>
        </mxCell>
        <mxCell id="7OSFac52b7fZNywMgHIq-34" value="" style="endArrow=none;html=1;rounded=0;fontSize=12;startSize=8;endSize=8;curved=1;fillColor=#f8cecc;strokeColor=#b85450;strokeWidth=3;" edge="1" parent="1">
          <mxGeometry width="50" height="50" relative="1" as="geometry">
            <mxPoint x="681" y="-430" as="sourcePoint" />
            <mxPoint x="680.31" y="-670" as="targetPoint" />
          </mxGeometry>
        </mxCell>
        <mxCell id="7OSFac52b7fZNywMgHIq-116" value="" style="shape=flexArrow;endArrow=classic;html=1;rounded=0;fontSize=12;startSize=8;endSize=8;curved=1;fillColor=#f8cecc;strokeColor=#b85450;" edge="1" parent="1">
          <mxGeometry width="50" height="50" relative="1" as="geometry">
            <mxPoint x="660.71" y="145" as="sourcePoint" />
            <mxPoint x="660.9771428571429" y="200" as="targetPoint" />
          </mxGeometry>
        </mxCell>
        <mxCell id="7OSFac52b7fZNywMgHIq-117" value="2" style="rounded=1;whiteSpace=wrap;html=1;" vertex="1" parent="1">
          <mxGeometry x="201" y="279" width="40" height="10" as="geometry" />
        </mxCell>
        <mxCell id="7OSFac52b7fZNywMgHIq-118" value="3" style="rounded=1;whiteSpace=wrap;html=1;" vertex="1" parent="1">
          <mxGeometry x="321" y="279" width="40" height="10" as="geometry" />
        </mxCell>
        <mxCell id="7OSFac52b7fZNywMgHIq-119" value="0" style="rounded=1;whiteSpace=wrap;html=1;" vertex="1" parent="1">
          <mxGeometry x="442" y="279" width="40" height="10" as="geometry" />
        </mxCell>
        <mxCell id="7OSFac52b7fZNywMgHIq-120" value="0" style="rounded=1;whiteSpace=wrap;html=1;" vertex="1" parent="1">
          <mxGeometry x="601" y="280" width="40" height="10" as="geometry" />
        </mxCell>
        <mxCell id="7OSFac52b7fZNywMgHIq-121" value="0" style="rounded=1;whiteSpace=wrap;html=1;" vertex="1" parent="1">
          <mxGeometry x="641" y="319" width="40" height="10" as="geometry" />
        </mxCell>
        <mxCell id="7OSFac52b7fZNywMgHIq-122" value="10" style="rounded=1;whiteSpace=wrap;html=1;" vertex="1" parent="1">
          <mxGeometry x="601" y="319" width="40" height="10" as="geometry" />
        </mxCell>
        <mxCell id="7OSFac52b7fZNywMgHIq-123" value="x2" style="rounded=1;whiteSpace=wrap;html=1;" vertex="1" parent="1">
          <mxGeometry x="201" y="-600" width="120" height="10" as="geometry" />
        </mxCell>
        <mxCell id="7OSFac52b7fZNywMgHIq-124" value="x3" style="rounded=1;whiteSpace=wrap;html=1;" vertex="1" parent="1">
          <mxGeometry x="321" y="-600" width="40" height="10" as="geometry" />
        </mxCell>
        <mxCell id="7OSFac52b7fZNywMgHIq-125" value="pop" style="rounded=1;whiteSpace=wrap;html=1;" vertex="1" parent="1">
          <mxGeometry x="281" y="-640" width="40" height="10" as="geometry" />
        </mxCell>
        <mxCell id="7OSFac52b7fZNywMgHIq-128" value="" style="endArrow=classic;html=1;rounded=0;fontSize=12;startSize=8;endSize=8;curved=1;entryX=0.5;entryY=1;entryDx=0;entryDy=0;" edge="1" parent="1" source="7OSFac52b7fZNywMgHIq-129" target="zbdh6VpdfGGvIS89XVBJ-53">
          <mxGeometry width="50" height="50" relative="1" as="geometry">
            <mxPoint x="101" y="-456" as="sourcePoint" />
            <mxPoint x="101" y="-406" as="targetPoint" />
          </mxGeometry>
        </mxCell>
        <mxCell id="7OSFac52b7fZNywMgHIq-129" value="&lt;p style=&quot;line-height: 50%;&quot;&gt;&lt;font style=&quot;font-size: 8px;&quot;&gt;&lt;b&gt;write sram[xram_addr]&lt;/b&gt;&lt;/font&gt;&lt;/p&gt;" style="text;html=1;align=center;verticalAlign=middle;whiteSpace=wrap;rounded=0;fontSize=16;fillColor=#f8cecc;strokeColor=#b85450;" vertex="1" parent="1">
          <mxGeometry x="36" y="-488" width="130" height="20" as="geometry" />
        </mxCell>
        <mxCell id="7OSFac52b7fZNywMgHIq-133" value="" style="endArrow=classic;html=1;rounded=0;fontSize=12;startSize=8;endSize=8;curved=1;fillColor=#f8cecc;strokeColor=#b85450;" edge="1" parent="1">
          <mxGeometry width="50" height="50" relative="1" as="geometry">
            <mxPoint x="451" y="-340" as="sourcePoint" />
            <mxPoint x="361" y="-340" as="targetPoint" />
          </mxGeometry>
        </mxCell>
        <mxCell id="7OSFac52b7fZNywMgHIq-135" value="" style="endArrow=none;html=1;rounded=0;fontSize=12;startSize=8;endSize=8;curved=1;fillColor=#f8cecc;strokeColor=#b85450;strokeWidth=3;dashed=1;" edge="1" parent="1">
          <mxGeometry width="50" height="50" relative="1" as="geometry">
            <mxPoint x="601" y="-431" as="sourcePoint" />
            <mxPoint x="601" y="-671" as="targetPoint" />
          </mxGeometry>
        </mxCell>
        <mxCell id="7OSFac52b7fZNywMgHIq-136" value="" style="shape=flexArrow;endArrow=classic;html=1;rounded=0;fontSize=12;startSize=8;endSize=8;curved=1;fillColor=#f8cecc;strokeColor=#b85450;" edge="1" parent="1">
          <mxGeometry width="50" height="50" relative="1" as="geometry">
            <mxPoint x="621" y="-670" as="sourcePoint" />
            <mxPoint x="621" y="-720" as="targetPoint" />
          </mxGeometry>
        </mxCell>
        <mxCell id="7OSFac52b7fZNywMgHIq-137" value="&lt;p style=&quot;line-height: 100%; font-size: 10px;&quot;&gt;cal_tap_final&lt;/p&gt;" style="text;html=1;align=center;verticalAlign=middle;whiteSpace=wrap;rounded=0;fontSize=16;fillColor=#d5e8d4;strokeColor=#82b366;" vertex="1" parent="1">
          <mxGeometry x="591" y="-760" width="60" height="30" as="geometry" />
        </mxCell>
        <mxCell id="7OSFac52b7fZNywMgHIq-138" value="&lt;p style=&quot;line-height: 100%; font-size: 10px;&quot;&gt;cal_x_data&lt;/p&gt;" style="text;html=1;align=center;verticalAlign=middle;whiteSpace=wrap;rounded=0;fontSize=16;fillColor=#d5e8d4;strokeColor=#82b366;" vertex="1" parent="1">
          <mxGeometry x="691" y="-404" width="60" height="30" as="geometry" />
        </mxCell>
        <mxCell id="7OSFac52b7fZNywMgHIq-140" value="&lt;p style=&quot;line-height: 100%;&quot;&gt;&lt;font style=&quot;font-size: 12px;&quot;&gt;need to consider the fifo data late transfer&lt;/font&gt;&lt;/p&gt;" style="text;html=1;align=center;verticalAlign=middle;whiteSpace=wrap;rounded=0;fontSize=16;fillColor=#e1d5e7;strokeColor=#9673a6;" vertex="1" parent="1">
          <mxGeometry x="671" y="-760" width="130" height="30" as="geometry" />
        </mxCell>
        <mxCell id="7OSFac52b7fZNywMgHIq-141" value="&lt;h1 style=&quot;margin-top: 0px;&quot;&gt;Consider&amp;nbsp;&lt;/h1&gt;&lt;p&gt;tap_ptr : reset in final tap calculate(so need use xram_addr to judge) , every cycle add one.&lt;/p&gt;&lt;p&gt;stam_ptr : reset in final tap calculate to xram_addr , every cycle sub one.&amp;nbsp;&lt;/p&gt;&lt;p&gt;&lt;br&gt;&lt;/p&gt;&lt;p&gt;&lt;br&gt;&lt;/p&gt;" style="text;html=1;whiteSpace=wrap;overflow=hidden;rounded=0;" vertex="1" parent="1">
          <mxGeometry x="11" y="429" width="220" height="190" as="geometry" />
        </mxCell>
        <mxCell id="7OSFac52b7fZNywMgHIq-144" value="&lt;p style=&quot;line-height: 100%;&quot;&gt;&lt;font style=&quot;font-size: 12px;&quot;&gt;need to consider the fifo data late transfer&lt;/font&gt;&lt;/p&gt;" style="text;html=1;align=center;verticalAlign=middle;whiteSpace=wrap;rounded=0;fontSize=16;fillColor=#e1d5e7;strokeColor=#9673a6;" vertex="1" parent="1">
          <mxGeometry x="126" y="433" width="130" height="30" as="geometry" />
        </mxCell>
        <mxCell id="7OSFac52b7fZNywMgHIq-171" value="pop" style="rounded=1;whiteSpace=wrap;html=1;" vertex="1" parent="1">
          <mxGeometry x="81" y="200" width="40" height="10" as="geometry" />
        </mxCell>
        <mxCell id="7OSFac52b7fZNywMgHIq-172" value="pop" style="rounded=1;whiteSpace=wrap;html=1;" vertex="1" parent="1">
          <mxGeometry x="161" y="200" width="40" height="10" as="geometry" />
        </mxCell>
        <mxCell id="7OSFac52b7fZNywMgHIq-173" value="" style="rounded=1;whiteSpace=wrap;html=1;" vertex="1" parent="1">
          <mxGeometry x="201" y="200" width="80" height="10" as="geometry" />
        </mxCell>
        <mxCell id="7OSFac52b7fZNywMgHIq-174" value="" style="rounded=1;whiteSpace=wrap;html=1;" vertex="1" parent="1">
          <mxGeometry x="321" y="200" width="40" height="10" as="geometry" />
        </mxCell>
        <mxCell id="7OSFac52b7fZNywMgHIq-175" value="" style="rounded=1;whiteSpace=wrap;html=1;" vertex="1" parent="1">
          <mxGeometry x="121" y="200" width="40" height="10" as="geometry" />
        </mxCell>
        <mxCell id="7OSFac52b7fZNywMgHIq-176" value="pop" style="rounded=1;whiteSpace=wrap;html=1;" vertex="1" parent="1">
          <mxGeometry x="441" y="200" width="40" height="10" as="geometry" />
        </mxCell>
        <mxCell id="7OSFac52b7fZNywMgHIq-177" value="" style="endArrow=none;dashed=1;html=1;dashPattern=1 3;strokeWidth=2;rounded=0;exitX=1;exitY=0.5;exitDx=0;exitDy=0;entryX=0;entryY=0.5;entryDx=0;entryDy=0;" edge="1" parent="1" source="7OSFac52b7fZNywMgHIq-174" target="7OSFac52b7fZNywMgHIq-176">
          <mxGeometry width="50" height="50" relative="1" as="geometry">
            <mxPoint x="371" y="204.14" as="sourcePoint" />
            <mxPoint x="425" y="204.43000000000006" as="targetPoint" />
          </mxGeometry>
        </mxCell>
        <mxCell id="7OSFac52b7fZNywMgHIq-178" value="pop" style="rounded=1;whiteSpace=wrap;html=1;" vertex="1" parent="1">
          <mxGeometry x="601" y="200" width="40" height="10" as="geometry" />
        </mxCell>
        <mxCell id="7OSFac52b7fZNywMgHIq-179" value="" style="endArrow=none;dashed=1;html=1;dashPattern=1 3;strokeWidth=2;rounded=0;exitX=1;exitY=0.5;exitDx=0;exitDy=0;entryX=0;entryY=0.5;entryDx=0;entryDy=0;" edge="1" parent="1" source="7OSFac52b7fZNywMgHIq-180" target="7OSFac52b7fZNywMgHIq-178">
          <mxGeometry width="50" height="50" relative="1" as="geometry">
            <mxPoint x="531" y="204.65999999999997" as="sourcePoint" />
            <mxPoint x="585" y="204.95000000000005" as="targetPoint" />
          </mxGeometry>
        </mxCell>
        <mxCell id="7OSFac52b7fZNywMgHIq-180" value="" style="rounded=1;whiteSpace=wrap;html=1;" vertex="1" parent="1">
          <mxGeometry x="481" y="200" width="40" height="10" as="geometry" />
        </mxCell>
        <mxCell id="7OSFac52b7fZNywMgHIq-181" value="pop" style="text;html=1;align=center;verticalAlign=middle;whiteSpace=wrap;rounded=0;" vertex="1" parent="1">
          <mxGeometry x="14" y="190" width="60" height="30" as="geometry" />
        </mxCell>
        <mxCell id="7OSFac52b7fZNywMgHIq-182" value="" style="rounded=1;whiteSpace=wrap;html=1;" vertex="1" parent="1">
          <mxGeometry x="641" y="200" width="40" height="10" as="geometry" />
        </mxCell>
        <mxCell id="7OSFac52b7fZNywMgHIq-183" value="" style="rounded=1;whiteSpace=wrap;html=1;" vertex="1" parent="1">
          <mxGeometry x="681" y="200" width="40" height="10" as="geometry" />
        </mxCell>
        <mxCell id="7OSFac52b7fZNywMgHIq-184" value="pop" style="rounded=1;whiteSpace=wrap;html=1;" vertex="1" parent="1">
          <mxGeometry x="281" y="200" width="40" height="10" as="geometry" />
        </mxCell>
        <mxCell id="7OSFac52b7fZNywMgHIq-186" value="0" style="rounded=1;whiteSpace=wrap;html=1;" vertex="1" parent="1">
          <mxGeometry x="81" y="240" width="40" height="10" as="geometry" />
        </mxCell>
        <mxCell id="7OSFac52b7fZNywMgHIq-187" value="1" style="rounded=1;whiteSpace=wrap;html=1;" vertex="1" parent="1">
          <mxGeometry x="121" y="240" width="80" height="10" as="geometry" />
        </mxCell>
        <mxCell id="7OSFac52b7fZNywMgHIq-188" value="3" style="rounded=1;whiteSpace=wrap;html=1;" vertex="1" parent="1">
          <mxGeometry x="321" y="240" width="40" height="10" as="geometry" />
        </mxCell>
        <mxCell id="7OSFac52b7fZNywMgHIq-189" value="xram_addr" style="text;html=1;align=center;verticalAlign=middle;whiteSpace=wrap;rounded=0;" vertex="1" parent="1">
          <mxGeometry x="11" y="230" width="60" height="30" as="geometry" />
        </mxCell>
        <mxCell id="7OSFac52b7fZNywMgHIq-190" value="2" style="rounded=1;whiteSpace=wrap;html=1;" vertex="1" parent="1">
          <mxGeometry x="201" y="240" width="120" height="10" as="geometry" />
        </mxCell>
        <mxCell id="7OSFac52b7fZNywMgHIq-191" value="10" style="rounded=1;whiteSpace=wrap;html=1;" vertex="1" parent="1">
          <mxGeometry x="441" y="240" width="40" height="10" as="geometry" />
        </mxCell>
        <mxCell id="7OSFac52b7fZNywMgHIq-192" value="" style="endArrow=none;dashed=1;html=1;dashPattern=1 3;strokeWidth=2;rounded=0;exitX=1;exitY=0.5;exitDx=0;exitDy=0;entryX=0;entryY=0.5;entryDx=0;entryDy=0;" edge="1" parent="1" source="7OSFac52b7fZNywMgHIq-188" target="7OSFac52b7fZNywMgHIq-191">
          <mxGeometry width="50" height="50" relative="1" as="geometry">
            <mxPoint x="381" y="245" as="sourcePoint" />
            <mxPoint x="435" y="245.28999999999996" as="targetPoint" />
          </mxGeometry>
        </mxCell>
        <mxCell id="7OSFac52b7fZNywMgHIq-193" value="0" style="rounded=1;whiteSpace=wrap;html=1;" vertex="1" parent="1">
          <mxGeometry x="481" y="240" width="40" height="10" as="geometry" />
        </mxCell>
        <mxCell id="7OSFac52b7fZNywMgHIq-194" value="" style="endArrow=none;dashed=1;html=1;dashPattern=1 3;strokeWidth=2;rounded=0;exitX=1;exitY=0.5;exitDx=0;exitDy=0;entryX=0;entryY=0.5;entryDx=0;entryDy=0;" edge="1" parent="1" source="7OSFac52b7fZNywMgHIq-193" target="7OSFac52b7fZNywMgHIq-196">
          <mxGeometry width="50" height="50" relative="1" as="geometry">
            <mxPoint x="533" y="244.30999999999995" as="sourcePoint" />
            <mxPoint x="587" y="244.60000000000002" as="targetPoint" />
          </mxGeometry>
        </mxCell>
        <mxCell id="7OSFac52b7fZNywMgHIq-195" value="1" style="rounded=1;whiteSpace=wrap;html=1;" vertex="1" parent="1">
          <mxGeometry x="641" y="240" width="120" height="10" as="geometry" />
        </mxCell>
        <mxCell id="7OSFac52b7fZNywMgHIq-196" value="0" style="rounded=1;whiteSpace=wrap;html=1;" vertex="1" parent="1">
          <mxGeometry x="601" y="240" width="40" height="10" as="geometry" />
        </mxCell>
        <mxCell id="7OSFac52b7fZNywMgHIq-197" value="&lt;p style=&quot;line-height: 100%; font-size: 10px;&quot;&gt;cal_tap_final&lt;/p&gt;" style="text;html=1;align=center;verticalAlign=middle;whiteSpace=wrap;rounded=0;fontSize=16;fillColor=#d5e8d4;strokeColor=#82b366;" vertex="1" parent="1">
          <mxGeometry x="586" y="95" width="60" height="30" as="geometry" />
        </mxCell>
        <mxCell id="7OSFac52b7fZNywMgHIq-212" style="edgeStyle=none;curved=1;rounded=0;orthogonalLoop=1;jettySize=auto;html=1;exitX=0.5;exitY=1;exitDx=0;exitDy=0;entryX=0.5;entryY=0;entryDx=0;entryDy=0;fontSize=12;startSize=8;endSize=8;" edge="1" parent="1">
          <mxGeometry relative="1" as="geometry">
            <mxPoint x="101" y="609" as="sourcePoint" />
            <mxPoint x="141" y="639" as="targetPoint" />
          </mxGeometry>
        </mxCell>
        <mxCell id="7OSFac52b7fZNywMgHIq-213" style="edgeStyle=none;curved=1;rounded=0;orthogonalLoop=1;jettySize=auto;html=1;exitX=0.5;exitY=1;exitDx=0;exitDy=0;entryX=0.5;entryY=0;entryDx=0;entryDy=0;fontSize=12;startSize=8;endSize=8;" edge="1" parent="1">
          <mxGeometry relative="1" as="geometry">
            <mxPoint x="141" y="649" as="sourcePoint" />
            <mxPoint x="181" y="679" as="targetPoint" />
          </mxGeometry>
        </mxCell>
        <mxCell id="7OSFac52b7fZNywMgHIq-214" value="x12" style="rounded=1;whiteSpace=wrap;html=1;arcSize=0;" vertex="1" parent="1">
          <mxGeometry x="121" y="639" width="80" height="10" as="geometry" />
        </mxCell>
        <mxCell id="7OSFac52b7fZNywMgHIq-215" value="pop" style="rounded=1;whiteSpace=wrap;html=1;" vertex="1" parent="1">
          <mxGeometry x="81" y="599" width="40" height="10" as="geometry" />
        </mxCell>
        <mxCell id="7OSFac52b7fZNywMgHIq-216" value="0" style="rounded=1;whiteSpace=wrap;html=1;fillColor=#fff2cc;strokeColor=#d6b656;" vertex="1" parent="1">
          <mxGeometry x="81" y="719" width="40" height="10" as="geometry" />
        </mxCell>
        <mxCell id="7OSFac52b7fZNywMgHIq-217" value="x11" style="rounded=1;whiteSpace=wrap;html=1;arcSize=0;" vertex="1" parent="1">
          <mxGeometry x="81" y="639" width="40" height="10" as="geometry" />
        </mxCell>
        <mxCell id="7OSFac52b7fZNywMgHIq-218" value="1" style="rounded=1;whiteSpace=wrap;html=1;fillColor=#fff2cc;strokeColor=#d6b656;" vertex="1" parent="1">
          <mxGeometry x="121" y="719" width="40" height="10" as="geometry" />
        </mxCell>
        <mxCell id="7OSFac52b7fZNywMgHIq-219" value="x11" style="rounded=1;whiteSpace=wrap;html=1;arcSize=0;" vertex="1" parent="1">
          <mxGeometry x="81" y="679" width="80" height="10" as="geometry" />
        </mxCell>
        <mxCell id="7OSFac52b7fZNywMgHIq-220" value="x12" style="rounded=1;whiteSpace=wrap;html=1;arcSize=0;" vertex="1" parent="1">
          <mxGeometry x="161" y="679" width="40" height="10" as="geometry" />
        </mxCell>
        <mxCell id="7OSFac52b7fZNywMgHIq-221" value="" style="rounded=1;whiteSpace=wrap;html=1;" vertex="1" parent="1">
          <mxGeometry x="121" y="599" width="40" height="10" as="geometry" />
        </mxCell>
        <mxCell id="7OSFac52b7fZNywMgHIq-222" value="" style="rounded=1;whiteSpace=wrap;html=1;" vertex="1" parent="1">
          <mxGeometry x="161" y="599" width="40" height="10" as="geometry" />
        </mxCell>
        <mxCell id="7OSFac52b7fZNywMgHIq-223" value="0" style="rounded=1;whiteSpace=wrap;html=1;fillColor=#fff2cc;strokeColor=#d6b656;" vertex="1" parent="1">
          <mxGeometry x="161" y="719" width="40" height="10" as="geometry" />
        </mxCell>
        <mxCell id="7OSFac52b7fZNywMgHIq-226" value="x_data" style="text;html=1;align=center;verticalAlign=middle;whiteSpace=wrap;rounded=0;" vertex="1" parent="1">
          <mxGeometry x="14" y="629" width="60" height="30" as="geometry" />
        </mxCell>
        <mxCell id="7OSFac52b7fZNywMgHIq-227" value="latch_final" style="text;html=1;align=center;verticalAlign=middle;whiteSpace=wrap;rounded=0;" vertex="1" parent="1">
          <mxGeometry x="14" y="669" width="60" height="30" as="geometry" />
        </mxCell>
        <mxCell id="7OSFac52b7fZNywMgHIq-229" value="sram_we" style="text;html=1;align=center;verticalAlign=middle;whiteSpace=wrap;rounded=0;" vertex="1" parent="1">
          <mxGeometry x="14" y="709" width="60" height="30" as="geometry" />
        </mxCell>
        <mxCell id="7OSFac52b7fZNywMgHIq-230" value="pop" style="text;html=1;align=center;verticalAlign=middle;whiteSpace=wrap;rounded=0;" vertex="1" parent="1">
          <mxGeometry x="17" y="589" width="60" height="30" as="geometry" />
        </mxCell>
        <mxCell id="7OSFac52b7fZNywMgHIq-236" value="X" style="rounded=1;whiteSpace=wrap;html=1;" vertex="1" parent="1">
          <mxGeometry x="402" y="599" width="40" height="10" as="geometry" />
        </mxCell>
        <mxCell id="7OSFac52b7fZNywMgHIq-237" value="0" style="rounded=1;whiteSpace=wrap;html=1;fillColor=#fff2cc;strokeColor=#d6b656;" vertex="1" parent="1">
          <mxGeometry x="402" y="719" width="119" height="10" as="geometry" />
        </mxCell>
        <mxCell id="7OSFac52b7fZNywMgHIq-238" value="x11" style="rounded=1;whiteSpace=wrap;html=1;arcSize=0;" vertex="1" parent="1">
          <mxGeometry x="402" y="639" width="119" height="10" as="geometry" />
        </mxCell>
        <mxCell id="7OSFac52b7fZNywMgHIq-240" value="x11" style="rounded=1;whiteSpace=wrap;html=1;arcSize=0;" vertex="1" parent="1">
          <mxGeometry x="402" y="679" width="119" height="10" as="geometry" />
        </mxCell>
        <mxCell id="7OSFac52b7fZNywMgHIq-242" value="" style="rounded=1;whiteSpace=wrap;html=1;" vertex="1" parent="1">
          <mxGeometry x="442" y="599" width="40" height="10" as="geometry" />
        </mxCell>
        <mxCell id="7OSFac52b7fZNywMgHIq-243" value="" style="rounded=1;whiteSpace=wrap;html=1;" vertex="1" parent="1">
          <mxGeometry x="482" y="599" width="40" height="10" as="geometry" />
        </mxCell>
        <mxCell id="7OSFac52b7fZNywMgHIq-247" value="x_data" style="text;html=1;align=center;verticalAlign=middle;whiteSpace=wrap;rounded=0;" vertex="1" parent="1">
          <mxGeometry x="335" y="629" width="60" height="30" as="geometry" />
        </mxCell>
        <mxCell id="7OSFac52b7fZNywMgHIq-248" value="latch_final" style="text;html=1;align=center;verticalAlign=middle;whiteSpace=wrap;rounded=0;" vertex="1" parent="1">
          <mxGeometry x="335" y="669" width="60" height="30" as="geometry" />
        </mxCell>
        <mxCell id="7OSFac52b7fZNywMgHIq-250" value="sram_we" style="text;html=1;align=center;verticalAlign=middle;whiteSpace=wrap;rounded=0;" vertex="1" parent="1">
          <mxGeometry x="335" y="709" width="60" height="30" as="geometry" />
        </mxCell>
        <mxCell id="7OSFac52b7fZNywMgHIq-251" value="pop" style="text;html=1;align=center;verticalAlign=middle;whiteSpace=wrap;rounded=0;" vertex="1" parent="1">
          <mxGeometry x="344" y="589" width="60" height="30" as="geometry" />
        </mxCell>
        <mxCell id="7OSFac52b7fZNywMgHIq-252" value="&lt;p style=&quot;line-height: 100%; font-size: 10px;&quot;&gt;cal_tap_final&lt;/p&gt;" style="text;html=1;align=center;verticalAlign=middle;whiteSpace=wrap;rounded=0;fontSize=16;fillColor=#d5e8d4;strokeColor=#82b366;" vertex="1" parent="1">
          <mxGeometry x="392" y="538" width="60" height="30" as="geometry" />
        </mxCell>
        <mxCell id="7OSFac52b7fZNywMgHIq-253" value="" style="endArrow=classic;html=1;rounded=0;fontSize=12;startSize=8;endSize=8;curved=1;entryX=0.5;entryY=0;entryDx=0;entryDy=0;exitX=0.5;exitY=1;exitDx=0;exitDy=0;" edge="1" parent="1" source="7OSFac52b7fZNywMgHIq-252" target="7OSFac52b7fZNywMgHIq-236">
          <mxGeometry width="50" height="50" relative="1" as="geometry">
            <mxPoint x="431" y="719" as="sourcePoint" />
            <mxPoint x="481" y="669" as="targetPoint" />
          </mxGeometry>
        </mxCell>
        <mxCell id="7OSFac52b7fZNywMgHIq-254" value="" style="shape=flexArrow;endArrow=classic;html=1;rounded=0;fontSize=12;startSize=8;endSize=8;curved=1;fillColor=#e1d5e7;strokeColor=#9673a6;" edge="1" parent="1">
          <mxGeometry width="50" height="50" relative="1" as="geometry">
            <mxPoint x="221" y="659" as="sourcePoint" />
            <mxPoint x="331" y="659" as="targetPoint" />
          </mxGeometry>
        </mxCell>
        <mxCell id="7OSFac52b7fZNywMgHIq-255" value="&lt;b style=&quot;font-size: 10px;&quot;&gt;if fifo no data&lt;/b&gt;" style="rounded=1;whiteSpace=wrap;html=1;" vertex="1" parent="1">
          <mxGeometry x="226" y="689" width="95" height="20" as="geometry" />
        </mxCell>
        <mxCell id="7OSFac52b7fZNywMgHIq-257" value="" style="shape=flexArrow;endArrow=classic;html=1;rounded=0;fontSize=12;startSize=8;endSize=8;curved=1;fillColor=#e1d5e7;strokeColor=#9673a6;" edge="1" parent="1">
          <mxGeometry width="50" height="50" relative="1" as="geometry">
            <mxPoint x="541" y="658.4300000000001" as="sourcePoint" />
            <mxPoint x="601" y="658.4300000000001" as="targetPoint" />
          </mxGeometry>
        </mxCell>
        <mxCell id="7OSFac52b7fZNywMgHIq-261" style="edgeStyle=elbowEdgeStyle;rounded=0;orthogonalLoop=1;jettySize=auto;html=1;exitX=0.5;exitY=1;exitDx=0;exitDy=0;entryX=0;entryY=0.5;entryDx=0;entryDy=0;fontSize=12;startSize=8;endSize=8;" edge="1" parent="1" source="7OSFac52b7fZNywMgHIq-259" target="7OSFac52b7fZNywMgHIq-260">
          <mxGeometry relative="1" as="geometry" />
        </mxCell>
        <mxCell id="7OSFac52b7fZNywMgHIq-259" value="&lt;b&gt;So :&amp;nbsp;&lt;/b&gt;&lt;div&gt;&lt;b&gt;need to check fifo_empty to enter cal_x_data&lt;/b&gt;&lt;/div&gt;" style="rounded=1;whiteSpace=wrap;html=1;fillColor=#e1d5e7;strokeColor=#9673a6;" vertex="1" parent="1">
          <mxGeometry x="611" y="629" width="160" height="60" as="geometry" />
        </mxCell>
        <mxCell id="7OSFac52b7fZNywMgHIq-260" value="&lt;p style=&quot;line-height: 100%; font-size: 10px;&quot;&gt;cal_x_data&lt;/p&gt;" style="text;html=1;align=center;verticalAlign=middle;whiteSpace=wrap;rounded=0;fontSize=16;fillColor=#d5e8d4;strokeColor=#82b366;" vertex="1" parent="1">
          <mxGeometry x="731" y="699" width="60" height="30" as="geometry" />
        </mxCell>
        <mxCell id="7OSFac52b7fZNywMgHIq-262" value="" style="shape=flexArrow;endArrow=classic;html=1;rounded=0;fontSize=12;startSize=8;endSize=8;curved=1;fillColor=#e1d5e7;strokeColor=#9673a6;" edge="1" parent="1">
          <mxGeometry width="50" height="50" relative="1" as="geometry">
            <mxPoint x="631.31" y="739" as="sourcePoint" />
            <mxPoint x="630.81" y="789" as="targetPoint" />
          </mxGeometry>
        </mxCell>
        <mxCell id="7OSFac52b7fZNywMgHIq-263" value="X" style="rounded=1;whiteSpace=wrap;html=1;" vertex="1" parent="1">
          <mxGeometry x="572.5" y="867" width="40" height="10" as="geometry" />
        </mxCell>
        <mxCell id="7OSFac52b7fZNywMgHIq-264" value="0" style="rounded=1;whiteSpace=wrap;html=1;fillColor=#fff2cc;strokeColor=#d6b656;" vertex="1" parent="1">
          <mxGeometry x="572.5" y="987" width="159" height="10" as="geometry" />
        </mxCell>
        <mxCell id="7OSFac52b7fZNywMgHIq-265" value="x11" style="rounded=1;whiteSpace=wrap;html=1;arcSize=0;" vertex="1" parent="1">
          <mxGeometry x="572.5" y="907" width="159" height="10" as="geometry" />
        </mxCell>
        <mxCell id="7OSFac52b7fZNywMgHIq-266" value="x11" style="rounded=1;whiteSpace=wrap;html=1;arcSize=0;" vertex="1" parent="1">
          <mxGeometry x="572.5" y="947" width="199" height="10" as="geometry" />
        </mxCell>
        <mxCell id="7OSFac52b7fZNywMgHIq-267" value="" style="rounded=1;whiteSpace=wrap;html=1;" vertex="1" parent="1">
          <mxGeometry x="612.5" y="867" width="40" height="10" as="geometry" />
        </mxCell>
        <mxCell id="7OSFac52b7fZNywMgHIq-268" value="" style="rounded=1;whiteSpace=wrap;html=1;" vertex="1" parent="1">
          <mxGeometry x="652.5" y="867" width="40" height="10" as="geometry" />
        </mxCell>
        <mxCell id="7OSFac52b7fZNywMgHIq-269" value="x_data" style="text;html=1;align=center;verticalAlign=middle;whiteSpace=wrap;rounded=0;" vertex="1" parent="1">
          <mxGeometry x="505.5" y="897" width="60" height="30" as="geometry" />
        </mxCell>
        <mxCell id="7OSFac52b7fZNywMgHIq-270" value="latch_final" style="text;html=1;align=center;verticalAlign=middle;whiteSpace=wrap;rounded=0;" vertex="1" parent="1">
          <mxGeometry x="505.5" y="937" width="60" height="30" as="geometry" />
        </mxCell>
        <mxCell id="7OSFac52b7fZNywMgHIq-271" value="sram_we" style="text;html=1;align=center;verticalAlign=middle;whiteSpace=wrap;rounded=0;" vertex="1" parent="1">
          <mxGeometry x="505.5" y="977" width="60" height="30" as="geometry" />
        </mxCell>
        <mxCell id="7OSFac52b7fZNywMgHIq-272" value="pop" style="text;html=1;align=center;verticalAlign=middle;whiteSpace=wrap;rounded=0;" vertex="1" parent="1">
          <mxGeometry x="514.5" y="857" width="60" height="30" as="geometry" />
        </mxCell>
        <mxCell id="7OSFac52b7fZNywMgHIq-273" value="&lt;p style=&quot;line-height: 100%; font-size: 10px;&quot;&gt;cal_tap_final, check_fifo_empty&lt;/p&gt;" style="text;html=1;align=center;verticalAlign=middle;whiteSpace=wrap;rounded=0;fontSize=16;fillColor=#d5e8d4;strokeColor=#82b366;" vertex="1" parent="1">
          <mxGeometry x="667" y="819" width="89" height="30" as="geometry" />
        </mxCell>
        <mxCell id="7OSFac52b7fZNywMgHIq-274" value="" style="endArrow=classic;html=1;rounded=0;fontSize=12;startSize=8;endSize=8;curved=1;entryX=0.5;entryY=0;entryDx=0;entryDy=0;exitX=0.5;exitY=1;exitDx=0;exitDy=0;" edge="1" parent="1" source="7OSFac52b7fZNywMgHIq-273" target="7OSFac52b7fZNywMgHIq-276">
          <mxGeometry width="50" height="50" relative="1" as="geometry">
            <mxPoint x="601.5" y="987" as="sourcePoint" />
            <mxPoint x="651.5" y="937" as="targetPoint" />
          </mxGeometry>
        </mxCell>
        <mxCell id="7OSFac52b7fZNywMgHIq-277" style="edgeStyle=none;curved=1;rounded=0;orthogonalLoop=1;jettySize=auto;html=1;entryX=0.5;entryY=0;entryDx=0;entryDy=0;fontSize=12;startSize=8;endSize=8;" edge="1" parent="1" source="7OSFac52b7fZNywMgHIq-275" target="7OSFac52b7fZNywMgHIq-278">
          <mxGeometry relative="1" as="geometry" />
        </mxCell>
        <mxCell id="7OSFac52b7fZNywMgHIq-275" value="&lt;p style=&quot;line-height: 100%; font-size: 10px;&quot;&gt;cal_x_data (tap == 0)&lt;/p&gt;" style="text;html=1;align=center;verticalAlign=middle;whiteSpace=wrap;rounded=0;fontSize=16;fillColor=#d5e8d4;strokeColor=#82b366;" vertex="1" parent="1">
          <mxGeometry x="686.5" y="779" width="130" height="30" as="geometry" />
        </mxCell>
        <mxCell id="7OSFac52b7fZNywMgHIq-276" value="pop" style="rounded=1;whiteSpace=wrap;html=1;" vertex="1" parent="1">
          <mxGeometry x="691.5" y="867" width="40" height="10" as="geometry" />
        </mxCell>
        <mxCell id="7OSFac52b7fZNywMgHIq-278" value="" style="rounded=1;whiteSpace=wrap;html=1;" vertex="1" parent="1">
          <mxGeometry x="731.5" y="867" width="40" height="10" as="geometry" />
        </mxCell>
        <mxCell id="7OSFac52b7fZNywMgHIq-282" value="" style="rounded=1;whiteSpace=wrap;html=1;" vertex="1" parent="1">
          <mxGeometry x="771.5" y="867" width="40" height="10" as="geometry" />
        </mxCell>
        <mxCell id="7OSFac52b7fZNywMgHIq-283" value="x12" style="rounded=1;whiteSpace=wrap;html=1;" vertex="1" parent="1">
          <mxGeometry x="731.5" y="907" width="80" height="10" as="geometry" />
        </mxCell>
        <mxCell id="7OSFac52b7fZNywMgHIq-284" value="x12" style="rounded=1;whiteSpace=wrap;html=1;arcSize=0;" vertex="1" parent="1">
          <mxGeometry x="771.5" y="947" width="40" height="10" as="geometry" />
        </mxCell>
        <mxCell id="7OSFac52b7fZNywMgHIq-285" value="1" style="rounded=1;whiteSpace=wrap;html=1;fillColor=#fff2cc;strokeColor=#d6b656;" vertex="1" parent="1">
          <mxGeometry x="731.5" y="987" width="40" height="10" as="geometry" />
        </mxCell>
        <mxCell id="7OSFac52b7fZNywMgHIq-286" value="0" style="rounded=1;whiteSpace=wrap;html=1;fillColor=#fff2cc;strokeColor=#d6b656;" vertex="1" parent="1">
          <mxGeometry x="771.5" y="987" width="40" height="10" as="geometry" />
        </mxCell>
        <mxCell id="7OSFac52b7fZNywMgHIq-289" style="edgeStyle=none;curved=1;rounded=0;orthogonalLoop=1;jettySize=auto;html=1;entryX=0.5;entryY=0;entryDx=0;entryDy=0;fontSize=12;startSize=8;endSize=8;" edge="1" parent="1" source="7OSFac52b7fZNywMgHIq-288" target="7OSFac52b7fZNywMgHIq-263">
          <mxGeometry relative="1" as="geometry" />
        </mxCell>
        <mxCell id="7OSFac52b7fZNywMgHIq-288" value="&lt;p style=&quot;line-height: 100%; font-size: 10px;&quot;&gt;cal_tap_final&lt;/p&gt;" style="text;html=1;align=center;verticalAlign=middle;whiteSpace=wrap;rounded=0;fontSize=16;fillColor=#d5e8d4;strokeColor=#82b366;" vertex="1" parent="1">
          <mxGeometry x="562.5" y="819" width="60" height="30" as="geometry" />
        </mxCell>
        <mxCell id="7OSFac52b7fZNywMgHIq-290" value="1" style="rounded=1;whiteSpace=wrap;html=1;" vertex="1" parent="1">
          <mxGeometry x="731.5" y="1069" width="80" height="10" as="geometry" />
        </mxCell>
        <mxCell id="7OSFac52b7fZNywMgHIq-291" value="0" style="rounded=1;whiteSpace=wrap;html=1;" vertex="1" parent="1">
          <mxGeometry x="572.5" y="1069" width="159" height="10" as="geometry" />
        </mxCell>
        <mxCell id="7OSFac52b7fZNywMgHIq-292" value="0" style="rounded=1;whiteSpace=wrap;html=1;" vertex="1" parent="1">
          <mxGeometry x="731.5" y="1108" width="80" height="10" as="geometry" />
        </mxCell>
        <mxCell id="7OSFac52b7fZNywMgHIq-293" value="10" style="rounded=1;whiteSpace=wrap;html=1;" vertex="1" parent="1">
          <mxGeometry x="572.5" y="1108" width="159" height="10" as="geometry" />
        </mxCell>
        <mxCell id="7OSFac52b7fZNywMgHIq-294" value="1" style="rounded=1;whiteSpace=wrap;html=1;" vertex="1" parent="1">
          <mxGeometry x="731.5" y="1029" width="80" height="10" as="geometry" />
        </mxCell>
        <mxCell id="7OSFac52b7fZNywMgHIq-295" value="0" style="rounded=1;whiteSpace=wrap;html=1;" vertex="1" parent="1">
          <mxGeometry x="572.5" y="1029" width="159" height="10" as="geometry" />
        </mxCell>
        <mxCell id="7OSFac52b7fZNywMgHIq-296" value="sram_ptr" style="text;html=1;align=center;verticalAlign=middle;whiteSpace=wrap;rounded=0;" vertex="1" parent="1">
          <mxGeometry x="506.5" y="1058.5" width="60" height="30" as="geometry" />
        </mxCell>
        <mxCell id="7OSFac52b7fZNywMgHIq-297" value="tap_ptr" style="text;html=1;align=center;verticalAlign=middle;whiteSpace=wrap;rounded=0;" vertex="1" parent="1">
          <mxGeometry x="506.5" y="1098.5" width="60" height="30" as="geometry" />
        </mxCell>
        <mxCell id="7OSFac52b7fZNywMgHIq-298" value="xram_addr" style="text;html=1;align=center;verticalAlign=middle;whiteSpace=wrap;rounded=0;" vertex="1" parent="1">
          <mxGeometry x="506.5" y="1019.5" width="60" height="30" as="geometry" />
        </mxCell>
        <mxCell id="7OSFac52b7fZNywMgHIq-299" value="1" style="rounded=1;whiteSpace=wrap;html=1;" vertex="1" parent="1">
          <mxGeometry x="681" y="319" width="40" height="10" as="geometry" />
        </mxCell>
        <mxCell id="7OSFac52b7fZNywMgHIq-300" value="0" style="rounded=1;whiteSpace=wrap;html=1;" vertex="1" parent="1">
          <mxGeometry x="681" y="280" width="40" height="10" as="geometry" />
        </mxCell>
        <mxCell id="7OSFac52b7fZNywMgHIq-301" value="" style="endArrow=none;html=1;rounded=0;fontSize=12;startSize=8;endSize=8;curved=1;fillColor=#f8cecc;strokeColor=#b85450;strokeWidth=3;" edge="1" parent="1">
          <mxGeometry width="50" height="50" relative="1" as="geometry">
            <mxPoint x="641" y="381" as="sourcePoint" />
            <mxPoint x="641" y="141" as="targetPoint" />
          </mxGeometry>
        </mxCell>
        <mxCell id="7OSFac52b7fZNywMgHIq-302" value="" style="endArrow=none;html=1;rounded=0;fontSize=12;startSize=8;endSize=8;curved=1;fillColor=#f8cecc;strokeColor=#b85450;strokeWidth=3;" edge="1" parent="1">
          <mxGeometry width="50" height="50" relative="1" as="geometry">
            <mxPoint x="681" y="381" as="sourcePoint" />
            <mxPoint x="680.31" y="141" as="targetPoint" />
          </mxGeometry>
        </mxCell>
        <mxCell id="7OSFac52b7fZNywMgHIq-303" value="" style="endArrow=none;html=1;rounded=0;fontSize=12;startSize=8;endSize=8;curved=1;fillColor=#f8cecc;strokeColor=#b85450;strokeWidth=3;dashed=1;" edge="1" parent="1">
          <mxGeometry width="50" height="50" relative="1" as="geometry">
            <mxPoint x="601" y="380" as="sourcePoint" />
            <mxPoint x="601" y="140" as="targetPoint" />
          </mxGeometry>
        </mxCell>
        <mxCell id="7OSFac52b7fZNywMgHIq-315" value="output" style="rounded=1;whiteSpace=wrap;html=1;" vertex="1" parent="1">
          <mxGeometry x="572.5" y="1148.5" width="199" height="10" as="geometry" />
        </mxCell>
        <mxCell id="7OSFac52b7fZNywMgHIq-316" value="result" style="text;html=1;align=center;verticalAlign=middle;whiteSpace=wrap;rounded=0;" vertex="1" parent="1">
          <mxGeometry x="506.5" y="1139" width="60" height="30" as="geometry" />
        </mxCell>
        <mxCell id="7OSFac52b7fZNywMgHIq-317" value="first" style="rounded=1;whiteSpace=wrap;html=1;" vertex="1" parent="1">
          <mxGeometry x="771.5" y="1148.5" width="40" height="10" as="geometry" />
        </mxCell>
        <mxCell id="7OSFac52b7fZNywMgHIq-331" value="Port Table" style="shape=table;startSize=30;container=1;collapsible=0;childLayout=tableLayout;fontStyle=1" vertex="1" parent="1">
          <mxGeometry x="27.5" y="828" width="453.5" height="328" as="geometry" />
        </mxCell>
        <mxCell id="7OSFac52b7fZNywMgHIq-332" value="" style="shape=tableRow;horizontal=0;startSize=0;swimlaneHead=0;swimlaneBody=0;strokeColor=inherit;top=0;left=0;bottom=0;right=0;collapsible=0;dropTarget=0;fillColor=none;points=[[0,0.5],[1,0.5]];portConstraint=eastwest;" vertex="1" parent="7OSFac52b7fZNywMgHIq-331">
          <mxGeometry y="30" width="453.5" height="30" as="geometry" />
        </mxCell>
        <mxCell id="7OSFac52b7fZNywMgHIq-333" value="&lt;span style=&quot;text-align: left;&quot;&gt;pop&lt;/span&gt;" style="shape=partialRectangle;html=1;whiteSpace=wrap;connectable=0;strokeColor=inherit;overflow=hidden;fillColor=none;top=0;left=0;bottom=0;right=0;pointerEvents=1;fontStyle=1" vertex="1" parent="7OSFac52b7fZNywMgHIq-332">
          <mxGeometry width="103" height="30" as="geometry">
            <mxRectangle width="103" height="30" as="alternateBounds" />
          </mxGeometry>
        </mxCell>
        <mxCell id="7OSFac52b7fZNywMgHIq-334" value="&lt;span style=&quot;text-align: left;&quot;&gt;when cal_tap_final and !fifo_empty.&lt;/span&gt;" style="shape=partialRectangle;html=1;whiteSpace=wrap;connectable=0;strokeColor=inherit;overflow=hidden;fillColor=none;top=0;left=0;bottom=0;right=0;pointerEvents=1;" vertex="1" parent="7OSFac52b7fZNywMgHIq-332">
          <mxGeometry x="103" width="351" height="30" as="geometry">
            <mxRectangle width="351" height="30" as="alternateBounds" />
          </mxGeometry>
        </mxCell>
        <mxCell id="7OSFac52b7fZNywMgHIq-335" value="" style="shape=tableRow;horizontal=0;startSize=0;swimlaneHead=0;swimlaneBody=0;strokeColor=inherit;top=0;left=0;bottom=0;right=0;collapsible=0;dropTarget=0;fillColor=none;points=[[0,0.5],[1,0.5]];portConstraint=eastwest;" vertex="1" parent="7OSFac52b7fZNywMgHIq-331">
          <mxGeometry y="60" width="453.5" height="30" as="geometry" />
        </mxCell>
        <mxCell id="7OSFac52b7fZNywMgHIq-336" value="&lt;span style=&quot;text-align: left;&quot;&gt;x_data&lt;/span&gt;" style="shape=partialRectangle;html=1;whiteSpace=wrap;connectable=0;strokeColor=inherit;overflow=hidden;fillColor=none;top=0;left=0;bottom=0;right=0;pointerEvents=1;fontStyle=1" vertex="1" parent="7OSFac52b7fZNywMgHIq-335">
          <mxGeometry width="103" height="30" as="geometry">
            <mxRectangle width="103" height="30" as="alternateBounds" />
          </mxGeometry>
        </mxCell>
        <mxCell id="7OSFac52b7fZNywMgHIq-337" value="&lt;span style=&quot;text-align: left;&quot;&gt;fifo_dout.&lt;/span&gt;" style="shape=partialRectangle;html=1;whiteSpace=wrap;connectable=0;strokeColor=inherit;overflow=hidden;fillColor=none;top=0;left=0;bottom=0;right=0;pointerEvents=1;" vertex="1" parent="7OSFac52b7fZNywMgHIq-335">
          <mxGeometry x="103" width="351" height="30" as="geometry">
            <mxRectangle width="351" height="30" as="alternateBounds" />
          </mxGeometry>
        </mxCell>
        <mxCell id="7OSFac52b7fZNywMgHIq-338" value="" style="shape=tableRow;horizontal=0;startSize=0;swimlaneHead=0;swimlaneBody=0;strokeColor=inherit;top=0;left=0;bottom=0;right=0;collapsible=0;dropTarget=0;fillColor=none;points=[[0,0.5],[1,0.5]];portConstraint=eastwest;" vertex="1" parent="7OSFac52b7fZNywMgHIq-331">
          <mxGeometry y="90" width="453.5" height="29" as="geometry" />
        </mxCell>
        <mxCell id="7OSFac52b7fZNywMgHIq-339" value="&lt;span style=&quot;text-align: left;&quot;&gt;latch_final&lt;/span&gt;" style="shape=partialRectangle;html=1;whiteSpace=wrap;connectable=0;strokeColor=inherit;overflow=hidden;fillColor=none;top=0;left=0;bottom=0;right=0;pointerEvents=1;fontStyle=1" vertex="1" parent="7OSFac52b7fZNywMgHIq-338">
          <mxGeometry width="103" height="29" as="geometry">
            <mxRectangle width="103" height="29" as="alternateBounds" />
          </mxGeometry>
        </mxCell>
        <mxCell id="7OSFac52b7fZNywMgHIq-340" value="&lt;span style=&quot;text-align: left;&quot;&gt;latch x_data.&lt;/span&gt;" style="shape=partialRectangle;html=1;whiteSpace=wrap;connectable=0;strokeColor=inherit;overflow=hidden;fillColor=none;top=0;left=0;bottom=0;right=0;pointerEvents=1;" vertex="1" parent="7OSFac52b7fZNywMgHIq-338">
          <mxGeometry x="103" width="351" height="29" as="geometry">
            <mxRectangle width="351" height="29" as="alternateBounds" />
          </mxGeometry>
        </mxCell>
        <mxCell id="7OSFac52b7fZNywMgHIq-341" value="" style="shape=tableRow;horizontal=0;startSize=0;swimlaneHead=0;swimlaneBody=0;strokeColor=inherit;top=0;left=0;bottom=0;right=0;collapsible=0;dropTarget=0;fillColor=none;points=[[0,0.5],[1,0.5]];portConstraint=eastwest;" vertex="1" parent="7OSFac52b7fZNywMgHIq-331">
          <mxGeometry y="119" width="453.5" height="30" as="geometry" />
        </mxCell>
        <mxCell id="7OSFac52b7fZNywMgHIq-342" value="&lt;span style=&quot;text-align: left;&quot;&gt;sram_we&lt;/span&gt;&lt;div&gt;&lt;span style=&quot;text-align: left;&quot;&gt;(data_en)&lt;/span&gt;&lt;/div&gt;" style="shape=partialRectangle;html=1;whiteSpace=wrap;connectable=0;strokeColor=inherit;overflow=hidden;fillColor=none;top=0;left=0;bottom=0;right=0;pointerEvents=1;fontStyle=1" vertex="1" parent="7OSFac52b7fZNywMgHIq-341">
          <mxGeometry width="103" height="30" as="geometry">
            <mxRectangle width="103" height="30" as="alternateBounds" />
          </mxGeometry>
        </mxCell>
        <mxCell id="7OSFac52b7fZNywMgHIq-343" value="&lt;span style=&quot;text-align: left;&quot;&gt;cal_x_data.&lt;/span&gt;" style="shape=partialRectangle;html=1;whiteSpace=wrap;connectable=0;strokeColor=inherit;overflow=hidden;fillColor=none;top=0;left=0;bottom=0;right=0;pointerEvents=1;" vertex="1" parent="7OSFac52b7fZNywMgHIq-341">
          <mxGeometry x="103" width="351" height="30" as="geometry">
            <mxRectangle width="351" height="30" as="alternateBounds" />
          </mxGeometry>
        </mxCell>
        <mxCell id="7OSFac52b7fZNywMgHIq-344" value="" style="shape=tableRow;horizontal=0;startSize=0;swimlaneHead=0;swimlaneBody=0;strokeColor=inherit;top=0;left=0;bottom=0;right=0;collapsible=0;dropTarget=0;fillColor=none;points=[[0,0.5],[1,0.5]];portConstraint=eastwest;" vertex="1" parent="7OSFac52b7fZNywMgHIq-331">
          <mxGeometry y="149" width="453.5" height="30" as="geometry" />
        </mxCell>
        <mxCell id="7OSFac52b7fZNywMgHIq-345" value="&lt;span style=&quot;text-align: left;&quot;&gt;xram_addr&lt;/span&gt;&lt;div&gt;&lt;span style=&quot;text-align: left;&quot;&gt;(data_ram_addr)&lt;/span&gt;&lt;/div&gt;" style="shape=partialRectangle;html=1;whiteSpace=wrap;connectable=0;strokeColor=inherit;overflow=hidden;fillColor=none;top=0;left=0;bottom=0;right=0;pointerEvents=1;fontStyle=1" vertex="1" parent="7OSFac52b7fZNywMgHIq-344">
          <mxGeometry width="103" height="30" as="geometry">
            <mxRectangle width="103" height="30" as="alternateBounds" />
          </mxGeometry>
        </mxCell>
        <mxCell id="7OSFac52b7fZNywMgHIq-346" value="&lt;span style=&quot;text-align: left;&quot;&gt;when pop add one.&lt;/span&gt;" style="shape=partialRectangle;html=1;whiteSpace=wrap;connectable=0;strokeColor=inherit;overflow=hidden;fillColor=none;top=0;left=0;bottom=0;right=0;pointerEvents=1;" vertex="1" parent="7OSFac52b7fZNywMgHIq-344">
          <mxGeometry x="103" width="351" height="30" as="geometry">
            <mxRectangle width="351" height="30" as="alternateBounds" />
          </mxGeometry>
        </mxCell>
        <mxCell id="7OSFac52b7fZNywMgHIq-347" value="" style="shape=tableRow;horizontal=0;startSize=0;swimlaneHead=0;swimlaneBody=0;strokeColor=inherit;top=0;left=0;bottom=0;right=0;collapsible=0;dropTarget=0;fillColor=none;points=[[0,0.5],[1,0.5]];portConstraint=eastwest;" vertex="1" parent="7OSFac52b7fZNywMgHIq-331">
          <mxGeometry y="179" width="453.5" height="30" as="geometry" />
        </mxCell>
        <mxCell id="7OSFac52b7fZNywMgHIq-348" value="&lt;span style=&quot;text-align: left;&quot;&gt;sram_ptr&lt;/span&gt;&lt;div&gt;&lt;span style=&quot;text-align: left;&quot;&gt;(data_ptr)&lt;/span&gt;&lt;/div&gt;" style="shape=partialRectangle;html=1;whiteSpace=wrap;connectable=0;strokeColor=inherit;overflow=hidden;fillColor=none;top=0;left=0;bottom=0;right=0;pointerEvents=1;fontStyle=1" vertex="1" parent="7OSFac52b7fZNywMgHIq-347">
          <mxGeometry width="103" height="30" as="geometry">
            <mxRectangle width="103" height="30" as="alternateBounds" />
          </mxGeometry>
        </mxCell>
        <mxCell id="7OSFac52b7fZNywMgHIq-349" value="&lt;span style=&quot;text-align: left;&quot;&gt;reset when pop, reset to xram_addr, any cycle sub one.&lt;/span&gt;" style="shape=partialRectangle;html=1;whiteSpace=wrap;connectable=0;strokeColor=inherit;overflow=hidden;fillColor=none;top=0;left=0;bottom=0;right=0;pointerEvents=1;" vertex="1" parent="7OSFac52b7fZNywMgHIq-347">
          <mxGeometry x="103" width="351" height="30" as="geometry">
            <mxRectangle width="351" height="30" as="alternateBounds" />
          </mxGeometry>
        </mxCell>
        <mxCell id="7OSFac52b7fZNywMgHIq-350" value="" style="shape=tableRow;horizontal=0;startSize=0;swimlaneHead=0;swimlaneBody=0;strokeColor=inherit;top=0;left=0;bottom=0;right=0;collapsible=0;dropTarget=0;fillColor=none;points=[[0,0.5],[1,0.5]];portConstraint=eastwest;" vertex="1" parent="7OSFac52b7fZNywMgHIq-331">
          <mxGeometry y="209" width="453.5" height="30" as="geometry" />
        </mxCell>
        <mxCell id="7OSFac52b7fZNywMgHIq-351" value="&lt;span style=&quot;text-align: left;&quot;&gt;tap_ptr&lt;/span&gt;" style="shape=partialRectangle;html=1;whiteSpace=wrap;connectable=0;strokeColor=inherit;overflow=hidden;fillColor=none;top=0;left=0;bottom=0;right=0;pointerEvents=1;fontStyle=1" vertex="1" parent="7OSFac52b7fZNywMgHIq-350">
          <mxGeometry width="103" height="30" as="geometry">
            <mxRectangle width="103" height="30" as="alternateBounds" />
          </mxGeometry>
        </mxCell>
        <mxCell id="7OSFac52b7fZNywMgHIq-352" value="&lt;span style=&quot;text-align: left;&quot;&gt;reset in pop, reset to 0, any cycle plus one.&lt;/span&gt;" style="shape=partialRectangle;html=1;whiteSpace=wrap;connectable=0;strokeColor=inherit;overflow=hidden;fillColor=none;top=0;left=0;bottom=0;right=0;pointerEvents=1;" vertex="1" parent="7OSFac52b7fZNywMgHIq-350">
          <mxGeometry x="103" width="351" height="30" as="geometry">
            <mxRectangle width="351" height="30" as="alternateBounds" />
          </mxGeometry>
        </mxCell>
        <mxCell id="7OSFac52b7fZNywMgHIq-353" value="" style="shape=tableRow;horizontal=0;startSize=0;swimlaneHead=0;swimlaneBody=0;strokeColor=inherit;top=0;left=0;bottom=0;right=0;collapsible=0;dropTarget=0;fillColor=none;points=[[0,0.5],[1,0.5]];portConstraint=eastwest;" vertex="1" parent="7OSFac52b7fZNywMgHIq-331">
          <mxGeometry y="239" width="453.5" height="29" as="geometry" />
        </mxCell>
        <mxCell id="7OSFac52b7fZNywMgHIq-354" value="&lt;span style=&quot;text-align: left;&quot;&gt;cal_tap_final&lt;/span&gt;" style="shape=partialRectangle;html=1;whiteSpace=wrap;connectable=0;strokeColor=inherit;overflow=hidden;fillColor=none;top=0;left=0;bottom=0;right=0;pointerEvents=1;fontStyle=1" vertex="1" parent="7OSFac52b7fZNywMgHIq-353">
          <mxGeometry width="103" height="29" as="geometry">
            <mxRectangle width="103" height="29" as="alternateBounds" />
          </mxGeometry>
        </mxCell>
        <mxCell id="7OSFac52b7fZNywMgHIq-355" value="&lt;span style=&quot;text-align: left;&quot;&gt;tap_ptr == tap_count.&lt;/span&gt;" style="shape=partialRectangle;html=1;whiteSpace=wrap;connectable=0;strokeColor=inherit;overflow=hidden;fillColor=none;top=0;left=0;bottom=0;right=0;pointerEvents=1;" vertex="1" parent="7OSFac52b7fZNywMgHIq-353">
          <mxGeometry x="103" width="351" height="29" as="geometry">
            <mxRectangle width="351" height="29" as="alternateBounds" />
          </mxGeometry>
        </mxCell>
        <mxCell id="7OSFac52b7fZNywMgHIq-356" value="" style="shape=tableRow;horizontal=0;startSize=0;swimlaneHead=0;swimlaneBody=0;strokeColor=inherit;top=0;left=0;bottom=0;right=0;collapsible=0;dropTarget=0;fillColor=none;points=[[0,0.5],[1,0.5]];portConstraint=eastwest;" vertex="1" parent="7OSFac52b7fZNywMgHIq-331">
          <mxGeometry y="268" width="453.5" height="30" as="geometry" />
        </mxCell>
        <mxCell id="7OSFac52b7fZNywMgHIq-357" value="&lt;span style=&quot;text-align: left;&quot;&gt;cal_x_data&lt;/span&gt;" style="shape=partialRectangle;html=1;whiteSpace=wrap;connectable=0;strokeColor=inherit;overflow=hidden;fillColor=none;top=0;left=0;bottom=0;right=0;pointerEvents=1;fontStyle=1" vertex="1" parent="7OSFac52b7fZNywMgHIq-356">
          <mxGeometry width="103" height="30" as="geometry">
            <mxRectangle width="103" height="30" as="alternateBounds" />
          </mxGeometry>
        </mxCell>
        <mxCell id="7OSFac52b7fZNywMgHIq-358" value="&lt;span style=&quot;text-align: left;&quot;&gt;tap_ptr == 0.&lt;/span&gt;" style="shape=partialRectangle;html=1;whiteSpace=wrap;connectable=0;strokeColor=inherit;overflow=hidden;fillColor=none;top=0;left=0;bottom=0;right=0;pointerEvents=1;" vertex="1" parent="7OSFac52b7fZNywMgHIq-356">
          <mxGeometry x="103" width="351" height="30" as="geometry">
            <mxRectangle width="351" height="30" as="alternateBounds" />
          </mxGeometry>
        </mxCell>
        <mxCell id="7OSFac52b7fZNywMgHIq-359" value="" style="shape=tableRow;horizontal=0;startSize=0;swimlaneHead=0;swimlaneBody=0;strokeColor=inherit;top=0;left=0;bottom=0;right=0;collapsible=0;dropTarget=0;fillColor=none;points=[[0,0.5],[1,0.5]];portConstraint=eastwest;" vertex="1" parent="7OSFac52b7fZNywMgHIq-331">
          <mxGeometry y="298" width="453.5" height="30" as="geometry" />
        </mxCell>
        <mxCell id="7OSFac52b7fZNywMgHIq-360" value="" style="shape=partialRectangle;html=1;whiteSpace=wrap;connectable=0;strokeColor=inherit;overflow=hidden;fillColor=none;top=0;left=0;bottom=0;right=0;pointerEvents=1;fontStyle=1" vertex="1" parent="7OSFac52b7fZNywMgHIq-359">
          <mxGeometry width="103" height="30" as="geometry">
            <mxRectangle width="103" height="30" as="alternateBounds" />
          </mxGeometry>
        </mxCell>
        <mxCell id="7OSFac52b7fZNywMgHIq-361" value="" style="shape=partialRectangle;html=1;whiteSpace=wrap;connectable=0;strokeColor=inherit;overflow=hidden;fillColor=none;top=0;left=0;bottom=0;right=0;pointerEvents=1;" vertex="1" parent="7OSFac52b7fZNywMgHIq-359">
          <mxGeometry x="103" width="351" height="30" as="geometry">
            <mxRectangle width="351" height="30" as="alternateBounds" />
          </mxGeometry>
        </mxCell>
        <mxCell id="7OSFac52b7fZNywMgHIq-395" value="&lt;h1 style=&quot;margin-top: 0px;&quot;&gt;PE UNIT&lt;/h1&gt;&lt;p&gt;Add : a additional and a latch for acc the data.&amp;nbsp;&lt;/p&gt;&lt;p&gt;Mul : a multiplier.&lt;/p&gt;" style="text;html=1;whiteSpace=wrap;overflow=hidden;rounded=0;" vertex="1" parent="1">
          <mxGeometry x="36" y="1209" width="230" height="120" as="geometry" />
        </mxCell>
        <mxCell id="7OSFac52b7fZNywMgHIq-396" value="" style="rounded=0;whiteSpace=wrap;html=1;" vertex="1" parent="1">
          <mxGeometry x="358" y="1229" width="173.33" height="260" as="geometry" />
        </mxCell>
        <mxCell id="7OSFac52b7fZNywMgHIq-397" value="" style="endArrow=none;html=1;rounded=0;fontSize=12;startSize=8;endSize=8;curved=1;entryX=0;entryY=0.192;entryDx=0;entryDy=0;entryPerimeter=0;" edge="1" parent="1" target="7OSFac52b7fZNywMgHIq-396">
          <mxGeometry width="50" height="50" relative="1" as="geometry">
            <mxPoint x="298" y="1279" as="sourcePoint" />
            <mxPoint x="438" y="1339" as="targetPoint" />
          </mxGeometry>
        </mxCell>
        <mxCell id="7OSFac52b7fZNywMgHIq-400" value="mul_0" style="edgeLabel;html=1;align=center;verticalAlign=middle;resizable=0;points=[];fontSize=12;" vertex="1" connectable="0" parent="7OSFac52b7fZNywMgHIq-397">
          <mxGeometry x="0.1184" relative="1" as="geometry">
            <mxPoint y="-10" as="offset" />
          </mxGeometry>
        </mxCell>
        <mxCell id="7OSFac52b7fZNywMgHIq-398" value="" style="endArrow=none;html=1;rounded=0;fontSize=12;startSize=8;endSize=8;curved=1;entryX=0;entryY=0.192;entryDx=0;entryDy=0;entryPerimeter=0;" edge="1" parent="1">
          <mxGeometry width="50" height="50" relative="1" as="geometry">
            <mxPoint x="298" y="1319" as="sourcePoint" />
            <mxPoint x="358" y="1319" as="targetPoint" />
          </mxGeometry>
        </mxCell>
        <mxCell id="7OSFac52b7fZNywMgHIq-399" value="" style="endArrow=none;html=1;rounded=0;fontSize=12;startSize=8;endSize=8;curved=1;entryX=0;entryY=0.192;entryDx=0;entryDy=0;entryPerimeter=0;" edge="1" parent="1">
          <mxGeometry width="50" height="50" relative="1" as="geometry">
            <mxPoint x="298" y="1358.6599999999999" as="sourcePoint" />
            <mxPoint x="358" y="1358.6599999999999" as="targetPoint" />
          </mxGeometry>
        </mxCell>
        <mxCell id="7OSFac52b7fZNywMgHIq-401" value="mul_1" style="edgeLabel;html=1;align=center;verticalAlign=middle;resizable=0;points=[];fontSize=12;" vertex="1" connectable="0" parent="1">
          <mxGeometry x="333.0030734100016" y="1309.0049425687866" as="geometry" />
        </mxCell>
        <mxCell id="7OSFac52b7fZNywMgHIq-402" value="acc_on" style="edgeLabel;html=1;align=center;verticalAlign=middle;resizable=0;points=[];fontSize=12;" vertex="1" connectable="0" parent="1">
          <mxGeometry x="332.0030734100016" y="1349.0049425687866" as="geometry" />
        </mxCell>
        <mxCell id="7OSFac52b7fZNywMgHIq-406" style="edgeStyle=elbowEdgeStyle;rounded=0;orthogonalLoop=1;jettySize=auto;html=1;entryX=1;entryY=0.75;entryDx=0;entryDy=0;fontSize=12;startSize=8;endSize=8;elbow=vertical;" edge="1" parent="1" source="7OSFac52b7fZNywMgHIq-403" target="7OSFac52b7fZNywMgHIq-404">
          <mxGeometry relative="1" as="geometry">
            <Array as="points">
              <mxPoint x="508" y="1419" />
            </Array>
          </mxGeometry>
        </mxCell>
        <mxCell id="7OSFac52b7fZNywMgHIq-412" style="edgeStyle=none;curved=1;rounded=0;orthogonalLoop=1;jettySize=auto;html=1;fontSize=12;startSize=8;endSize=8;" edge="1" parent="1" source="7OSFac52b7fZNywMgHIq-403" target="7OSFac52b7fZNywMgHIq-396">
          <mxGeometry relative="1" as="geometry" />
        </mxCell>
        <mxCell id="7OSFac52b7fZNywMgHIq-403" value="acc_latch" style="rounded=0;whiteSpace=wrap;html=1;fillColor=#dae8fc;strokeColor=#6c8ebf;" vertex="1" parent="1">
          <mxGeometry x="399.66" y="1429" width="90" height="30" as="geometry" />
        </mxCell>
        <mxCell id="7OSFac52b7fZNywMgHIq-405" style="edgeStyle=elbowEdgeStyle;rounded=0;orthogonalLoop=1;jettySize=auto;html=1;entryX=0;entryY=0.5;entryDx=0;entryDy=0;fontSize=12;startSize=8;endSize=8;" edge="1" parent="1" source="7OSFac52b7fZNywMgHIq-404" target="7OSFac52b7fZNywMgHIq-403">
          <mxGeometry relative="1" as="geometry">
            <Array as="points">
              <mxPoint x="378" y="1399" />
            </Array>
          </mxGeometry>
        </mxCell>
        <mxCell id="7OSFac52b7fZNywMgHIq-404" value="mul_0 * mul_1 + acc_latch" style="rounded=0;whiteSpace=wrap;html=1;" vertex="1" parent="1">
          <mxGeometry x="409.66" y="1334" width="70" height="50" as="geometry" />
        </mxCell>
        <mxCell id="7OSFac52b7fZNywMgHIq-407" value="&lt;div&gt;&lt;font style=&quot;font-size: 8px;&quot;&gt;if (cal)&lt;/font&gt;&lt;/div&gt;&lt;font style=&quot;font-size: 8px;&quot;&gt;acc_latch &amp;lt;= acc_latch + mul_0 * mul_1&lt;/font&gt;" style="text;html=1;align=center;verticalAlign=middle;whiteSpace=wrap;rounded=0;fontSize=16;" vertex="1" parent="1">
          <mxGeometry x="366.5" y="1259" width="159" height="30" as="geometry" />
        </mxCell>
        <mxCell id="7OSFac52b7fZNywMgHIq-408" value="" style="endArrow=none;html=1;rounded=0;fontSize=12;startSize=8;endSize=8;curved=1;exitX=0.5;exitY=1;exitDx=0;exitDy=0;" edge="1" parent="1" source="7OSFac52b7fZNywMgHIq-396">
          <mxGeometry width="50" height="50" relative="1" as="geometry">
            <mxPoint x="479.66" y="1529" as="sourcePoint" />
            <mxPoint x="445" y="1519" as="targetPoint" />
          </mxGeometry>
        </mxCell>
        <mxCell id="7OSFac52b7fZNywMgHIq-414" value="out" style="edgeLabel;html=1;align=center;verticalAlign=middle;resizable=0;points=[];fontSize=12;" vertex="1" connectable="0" parent="7OSFac52b7fZNywMgHIq-408">
          <mxGeometry x="0.1574" y="1" relative="1" as="geometry">
            <mxPoint x="11" as="offset" />
          </mxGeometry>
        </mxCell>
        <mxCell id="7OSFac52b7fZNywMgHIq-409" value="" style="endArrow=none;html=1;rounded=0;fontSize=12;startSize=8;endSize=8;curved=1;" edge="1" parent="1">
          <mxGeometry width="50" height="50" relative="1" as="geometry">
            <mxPoint x="298.33000000000004" y="1459" as="sourcePoint" />
            <mxPoint x="358" y="1459" as="targetPoint" />
          </mxGeometry>
        </mxCell>
        <mxCell id="7OSFac52b7fZNywMgHIq-410" value="cal" style="edgeLabel;html=1;align=center;verticalAlign=middle;resizable=0;points=[];fontSize=12;" vertex="1" connectable="0" parent="7OSFac52b7fZNywMgHIq-409">
          <mxGeometry x="0.1678" y="-3" relative="1" as="geometry">
            <mxPoint x="-2" y="-18" as="offset" />
          </mxGeometry>
        </mxCell>
        <mxCell id="7OSFac52b7fZNywMgHIq-415" value="tap_count" style="text;html=1;align=center;verticalAlign=middle;whiteSpace=wrap;rounded=0;" vertex="1" parent="1">
          <mxGeometry x="11" y="350" width="60" height="30" as="geometry" />
        </mxCell>
        <mxCell id="7OSFac52b7fZNywMgHIq-417" value="0" style="rounded=1;whiteSpace=wrap;html=1;" vertex="1" parent="1">
          <mxGeometry x="81" y="360" width="40" height="10" as="geometry" />
        </mxCell>
        <mxCell id="7OSFac52b7fZNywMgHIq-418" value="1" style="rounded=1;whiteSpace=wrap;html=1;" vertex="1" parent="1">
          <mxGeometry x="121" y="360" width="80" height="10" as="geometry" />
        </mxCell>
        <mxCell id="7OSFac52b7fZNywMgHIq-420" value="2" style="rounded=1;whiteSpace=wrap;html=1;" vertex="1" parent="1">
          <mxGeometry x="201" y="360" width="120" height="10" as="geometry" />
        </mxCell>
        <mxCell id="7OSFac52b7fZNywMgHIq-423" value="3" style="rounded=1;whiteSpace=wrap;html=1;" vertex="1" parent="1">
          <mxGeometry x="321" y="360" width="40" height="10" as="geometry" />
        </mxCell>
        <mxCell id="7OSFac52b7fZNywMgHIq-424" value="0" style="rounded=1;whiteSpace=wrap;html=1;fillColor=#f8cecc;strokeColor=#b85450;" vertex="1" parent="1">
          <mxGeometry x="120" y="1658" width="40" height="10" as="geometry" />
        </mxCell>
        <mxCell id="7OSFac52b7fZNywMgHIq-425" value="1" style="rounded=1;whiteSpace=wrap;html=1;fillColor=#f8cecc;strokeColor=#b85450;" vertex="1" parent="1">
          <mxGeometry x="160" y="1658" width="40" height="10" as="geometry" />
        </mxCell>
        <mxCell id="7OSFac52b7fZNywMgHIq-426" value="0" style="rounded=1;whiteSpace=wrap;html=1;fillColor=#f8cecc;strokeColor=#b85450;" vertex="1" parent="1">
          <mxGeometry x="200" y="1658" width="40" height="10" as="geometry" />
        </mxCell>
        <mxCell id="7OSFac52b7fZNywMgHIq-427" value="1" style="rounded=1;whiteSpace=wrap;html=1;fillColor=#f8cecc;strokeColor=#b85450;" vertex="1" parent="1">
          <mxGeometry x="280" y="1658" width="40" height="10" as="geometry" />
        </mxCell>
        <mxCell id="7OSFac52b7fZNywMgHIq-428" value="addr" style="text;html=1;align=center;verticalAlign=middle;whiteSpace=wrap;rounded=0;fillColor=#f8cecc;strokeColor=#b85450;" vertex="1" parent="1">
          <mxGeometry x="50" y="1648" width="60" height="30" as="geometry" />
        </mxCell>
        <mxCell id="7OSFac52b7fZNywMgHIq-429" value="0" style="rounded=1;whiteSpace=wrap;html=1;fillColor=#f8cecc;strokeColor=#b85450;" vertex="1" parent="1">
          <mxGeometry x="320" y="1658" width="40" height="10" as="geometry" />
        </mxCell>
        <mxCell id="7OSFac52b7fZNywMgHIq-430" value="2" style="rounded=1;whiteSpace=wrap;html=1;fillColor=#f8cecc;strokeColor=#b85450;" vertex="1" parent="1">
          <mxGeometry x="240" y="1658" width="40" height="10" as="geometry" />
        </mxCell>
        <mxCell id="7OSFac52b7fZNywMgHIq-431" value="3" style="rounded=1;whiteSpace=wrap;html=1;fillColor=#f8cecc;strokeColor=#b85450;" vertex="1" parent="1">
          <mxGeometry x="360" y="1658" width="40" height="10" as="geometry" />
        </mxCell>
        <mxCell id="7OSFac52b7fZNywMgHIq-432" value="pop" style="rounded=1;whiteSpace=wrap;html=1;" vertex="1" parent="1">
          <mxGeometry x="121" y="1578" width="40" height="10" as="geometry" />
        </mxCell>
        <mxCell id="7OSFac52b7fZNywMgHIq-433" value="pop" style="rounded=1;whiteSpace=wrap;html=1;" vertex="1" parent="1">
          <mxGeometry x="201" y="1578" width="40" height="10" as="geometry" />
        </mxCell>
        <mxCell id="7OSFac52b7fZNywMgHIq-434" value="" style="rounded=1;whiteSpace=wrap;html=1;" vertex="1" parent="1">
          <mxGeometry x="241" y="1578" width="80" height="10" as="geometry" />
        </mxCell>
        <mxCell id="7OSFac52b7fZNywMgHIq-435" value="" style="rounded=1;whiteSpace=wrap;html=1;" vertex="1" parent="1">
          <mxGeometry x="361" y="1578" width="40" height="10" as="geometry" />
        </mxCell>
        <mxCell id="7OSFac52b7fZNywMgHIq-436" value="" style="rounded=1;whiteSpace=wrap;html=1;" vertex="1" parent="1">
          <mxGeometry x="161" y="1578" width="40" height="10" as="geometry" />
        </mxCell>
        <mxCell id="7OSFac52b7fZNywMgHIq-437" value="pop" style="text;html=1;align=center;verticalAlign=middle;whiteSpace=wrap;rounded=0;" vertex="1" parent="1">
          <mxGeometry x="54" y="1568" width="60" height="30" as="geometry" />
        </mxCell>
        <mxCell id="7OSFac52b7fZNywMgHIq-438" value="pop" style="rounded=1;whiteSpace=wrap;html=1;" vertex="1" parent="1">
          <mxGeometry x="321" y="1578" width="40" height="10" as="geometry" />
        </mxCell>
        <mxCell id="7OSFac52b7fZNywMgHIq-440" value="x" style="rounded=1;whiteSpace=wrap;html=1;fillColor=#f8cecc;strokeColor=#b85450;" vertex="1" parent="1">
          <mxGeometry x="121" y="1698" width="40" height="10" as="geometry" />
        </mxCell>
        <mxCell id="7OSFac52b7fZNywMgHIq-441" value="x" style="rounded=1;whiteSpace=wrap;html=1;fillColor=#f8cecc;strokeColor=#b85450;" vertex="1" parent="1">
          <mxGeometry x="161" y="1698" width="40" height="10" as="geometry" />
        </mxCell>
        <mxCell id="7OSFac52b7fZNywMgHIq-442" value="x" style="rounded=1;whiteSpace=wrap;html=1;fillColor=#f8cecc;strokeColor=#b85450;" vertex="1" parent="1">
          <mxGeometry x="201" y="1698" width="40" height="10" as="geometry" />
        </mxCell>
        <mxCell id="7OSFac52b7fZNywMgHIq-443" value="x" style="rounded=1;whiteSpace=wrap;html=1;fillColor=#f8cecc;strokeColor=#b85450;" vertex="1" parent="1">
          <mxGeometry x="281" y="1698" width="40" height="10" as="geometry" />
        </mxCell>
        <mxCell id="7OSFac52b7fZNywMgHIq-444" value="data_Di" style="text;html=1;align=center;verticalAlign=middle;whiteSpace=wrap;rounded=0;fillColor=#f8cecc;strokeColor=#b85450;" vertex="1" parent="1">
          <mxGeometry x="51" y="1688" width="60" height="30" as="geometry" />
        </mxCell>
        <mxCell id="7OSFac52b7fZNywMgHIq-445" value="1" style="rounded=1;whiteSpace=wrap;html=1;fillColor=#f8cecc;strokeColor=#b85450;" vertex="1" parent="1">
          <mxGeometry x="321" y="1698" width="40" height="10" as="geometry" />
        </mxCell>
        <mxCell id="7OSFac52b7fZNywMgHIq-446" value="0" style="rounded=1;whiteSpace=wrap;html=1;fillColor=#f8cecc;strokeColor=#b85450;" vertex="1" parent="1">
          <mxGeometry x="241" y="1698" width="40" height="10" as="geometry" />
        </mxCell>
        <mxCell id="7OSFac52b7fZNywMgHIq-447" value="0" style="rounded=1;whiteSpace=wrap;html=1;fillColor=#f8cecc;strokeColor=#b85450;" vertex="1" parent="1">
          <mxGeometry x="361" y="1698" width="40" height="10" as="geometry" />
        </mxCell>
        <mxCell id="7OSFac52b7fZNywMgHIq-456" value="1" style="rounded=1;whiteSpace=wrap;html=1;fillColor=#fff2cc;strokeColor=#d6b656;" vertex="1" parent="1">
          <mxGeometry x="121" y="1618" width="40" height="10" as="geometry" />
        </mxCell>
        <mxCell id="7OSFac52b7fZNywMgHIq-457" value="1" style="rounded=1;whiteSpace=wrap;html=1;fillColor=#fff2cc;strokeColor=#d6b656;" vertex="1" parent="1">
          <mxGeometry x="161" y="1618" width="40" height="10" as="geometry" />
        </mxCell>
        <mxCell id="7OSFac52b7fZNywMgHIq-458" value="0" style="rounded=1;whiteSpace=wrap;html=1;fillColor=#fff2cc;strokeColor=#d6b656;" vertex="1" parent="1">
          <mxGeometry x="201" y="1618" width="40" height="10" as="geometry" />
        </mxCell>
        <mxCell id="7OSFac52b7fZNywMgHIq-459" value="1" style="rounded=1;whiteSpace=wrap;html=1;fillColor=#fff2cc;strokeColor=#d6b656;" vertex="1" parent="1">
          <mxGeometry x="241" y="1618" width="40" height="10" as="geometry" />
        </mxCell>
        <mxCell id="7OSFac52b7fZNywMgHIq-460" value="0" style="rounded=1;whiteSpace=wrap;html=1;fillColor=#fff2cc;strokeColor=#d6b656;" vertex="1" parent="1">
          <mxGeometry x="281" y="1618" width="40" height="10" as="geometry" />
        </mxCell>
        <mxCell id="7OSFac52b7fZNywMgHIq-461" value="sram_we" style="text;html=1;align=center;verticalAlign=middle;whiteSpace=wrap;rounded=0;" vertex="1" parent="1">
          <mxGeometry x="51" y="1608" width="60" height="30" as="geometry" />
        </mxCell>
        <mxCell id="7OSFac52b7fZNywMgHIq-462" value="0" style="rounded=1;whiteSpace=wrap;html=1;fillColor=#fff2cc;strokeColor=#d6b656;" vertex="1" parent="1">
          <mxGeometry x="321" y="1618" width="40" height="10" as="geometry" />
        </mxCell>
        <mxCell id="7OSFac52b7fZNywMgHIq-463" value="1" style="rounded=1;whiteSpace=wrap;html=1;fillColor=#fff2cc;strokeColor=#d6b656;" vertex="1" parent="1">
          <mxGeometry x="361" y="1618" width="40" height="10" as="geometry" />
        </mxCell>
        <mxCell id="7OSFac52b7fZNywMgHIq-464" value="&lt;font color=&quot;#ff0000&quot;&gt;ERROR : NO CONSIDER SRAM DELAY ONE&lt;/font&gt;" style="text;html=1;align=center;verticalAlign=middle;whiteSpace=wrap;rounded=0;fontSize=16;" vertex="1" parent="1">
          <mxGeometry x="430" y="1658" width="370" height="30" as="geometry" />
        </mxCell>
        <mxCell id="7OSFac52b7fZNywMgHIq-465" value="" style="rounded=0;whiteSpace=wrap;html=1;fillColor=none;strokeColor=#FF0000;" vertex="1" parent="1">
          <mxGeometry x="26.5" y="1558" width="763.5" height="180" as="geometry" />
        </mxCell>
        <mxCell id="7OSFac52b7fZNywMgHIq-579" value="REG/WIRE Description" style="shape=table;startSize=30;container=1;collapsible=0;childLayout=tableLayout;fontStyle=1" vertex="1" parent="1">
          <mxGeometry x="11" y="-1160" width="790" height="328" as="geometry" />
        </mxCell>
        <mxCell id="7OSFac52b7fZNywMgHIq-580" value="" style="shape=tableRow;horizontal=0;startSize=0;swimlaneHead=0;swimlaneBody=0;strokeColor=inherit;top=0;left=0;bottom=0;right=0;collapsible=0;dropTarget=0;fillColor=none;points=[[0,0.5],[1,0.5]];portConstraint=eastwest;" vertex="1" parent="7OSFac52b7fZNywMgHIq-579">
          <mxGeometry y="30" width="790" height="30" as="geometry" />
        </mxCell>
        <mxCell id="7OSFac52b7fZNywMgHIq-581" value="&lt;span style=&quot;text-align: left;&quot;&gt;pop&lt;/span&gt;" style="shape=partialRectangle;html=1;whiteSpace=wrap;connectable=0;strokeColor=inherit;overflow=hidden;fillColor=none;top=0;left=0;bottom=0;right=0;pointerEvents=1;fontStyle=1" vertex="1" parent="7OSFac52b7fZNywMgHIq-580">
          <mxGeometry width="130" height="30" as="geometry">
            <mxRectangle width="130" height="30" as="alternateBounds" />
          </mxGeometry>
        </mxCell>
        <mxCell id="7OSFac52b7fZNywMgHIq-582" value="&lt;span style=&quot;text-align: left;&quot;&gt;when PE calculate the last tap data, it will pop the new x_data from fifo&lt;/span&gt;" style="shape=partialRectangle;html=1;whiteSpace=wrap;connectable=0;strokeColor=inherit;overflow=hidden;fillColor=none;top=0;left=0;bottom=0;right=0;pointerEvents=1;" vertex="1" parent="7OSFac52b7fZNywMgHIq-580">
          <mxGeometry x="130" width="660" height="30" as="geometry">
            <mxRectangle width="660" height="30" as="alternateBounds" />
          </mxGeometry>
        </mxCell>
        <mxCell id="7OSFac52b7fZNywMgHIq-583" value="" style="shape=tableRow;horizontal=0;startSize=0;swimlaneHead=0;swimlaneBody=0;strokeColor=inherit;top=0;left=0;bottom=0;right=0;collapsible=0;dropTarget=0;fillColor=none;points=[[0,0.5],[1,0.5]];portConstraint=eastwest;" vertex="1" parent="7OSFac52b7fZNywMgHIq-579">
          <mxGeometry y="60" width="790" height="30" as="geometry" />
        </mxCell>
        <mxCell id="7OSFac52b7fZNywMgHIq-584" value="&lt;span style=&quot;text-align: left;&quot;&gt;x_data&lt;/span&gt;" style="shape=partialRectangle;html=1;whiteSpace=wrap;connectable=0;strokeColor=inherit;overflow=hidden;fillColor=none;top=0;left=0;bottom=0;right=0;pointerEvents=1;fontStyle=1" vertex="1" parent="7OSFac52b7fZNywMgHIq-583">
          <mxGeometry width="130" height="30" as="geometry">
            <mxRectangle width="130" height="30" as="alternateBounds" />
          </mxGeometry>
        </mxCell>
        <mxCell id="7OSFac52b7fZNywMgHIq-585" value="&lt;span style=&quot;text-align: left;&quot;&gt;fifo_dout.&lt;/span&gt;" style="shape=partialRectangle;html=1;whiteSpace=wrap;connectable=0;strokeColor=inherit;overflow=hidden;fillColor=none;top=0;left=0;bottom=0;right=0;pointerEvents=1;" vertex="1" parent="7OSFac52b7fZNywMgHIq-583">
          <mxGeometry x="130" width="660" height="30" as="geometry">
            <mxRectangle width="660" height="30" as="alternateBounds" />
          </mxGeometry>
        </mxCell>
        <mxCell id="7OSFac52b7fZNywMgHIq-586" value="" style="shape=tableRow;horizontal=0;startSize=0;swimlaneHead=0;swimlaneBody=0;strokeColor=inherit;top=0;left=0;bottom=0;right=0;collapsible=0;dropTarget=0;fillColor=none;points=[[0,0.5],[1,0.5]];portConstraint=eastwest;" vertex="1" parent="7OSFac52b7fZNywMgHIq-579">
          <mxGeometry y="90" width="790" height="29" as="geometry" />
        </mxCell>
        <mxCell id="7OSFac52b7fZNywMgHIq-587" value="&lt;span style=&quot;text-align: left;&quot;&gt;latch_final&lt;/span&gt;" style="shape=partialRectangle;html=1;whiteSpace=wrap;connectable=0;strokeColor=inherit;overflow=hidden;fillColor=none;top=0;left=0;bottom=0;right=0;pointerEvents=1;fontStyle=1" vertex="1" parent="7OSFac52b7fZNywMgHIq-586">
          <mxGeometry width="130" height="29" as="geometry">
            <mxRectangle width="130" height="29" as="alternateBounds" />
          </mxGeometry>
        </mxCell>
        <mxCell id="7OSFac52b7fZNywMgHIq-588" value="&lt;span style=&quot;text-align: left;&quot;&gt;it latch x_data , when pop clock , write to sram&lt;/span&gt;" style="shape=partialRectangle;html=1;whiteSpace=wrap;connectable=0;strokeColor=inherit;overflow=hidden;fillColor=none;top=0;left=0;bottom=0;right=0;pointerEvents=1;" vertex="1" parent="7OSFac52b7fZNywMgHIq-586">
          <mxGeometry x="130" width="660" height="29" as="geometry">
            <mxRectangle width="660" height="29" as="alternateBounds" />
          </mxGeometry>
        </mxCell>
        <mxCell id="7OSFac52b7fZNywMgHIq-589" value="" style="shape=tableRow;horizontal=0;startSize=0;swimlaneHead=0;swimlaneBody=0;strokeColor=inherit;top=0;left=0;bottom=0;right=0;collapsible=0;dropTarget=0;fillColor=none;points=[[0,0.5],[1,0.5]];portConstraint=eastwest;" vertex="1" parent="7OSFac52b7fZNywMgHIq-579">
          <mxGeometry y="119" width="790" height="30" as="geometry" />
        </mxCell>
        <mxCell id="7OSFac52b7fZNywMgHIq-590" value="&lt;span style=&quot;text-align: left;&quot;&gt;sram_we&lt;/span&gt;&lt;div&gt;&lt;span style=&quot;text-align: left;&quot;&gt;(data_en)&lt;/span&gt;&lt;/div&gt;" style="shape=partialRectangle;html=1;whiteSpace=wrap;connectable=0;strokeColor=inherit;overflow=hidden;fillColor=none;top=0;left=0;bottom=0;right=0;pointerEvents=1;fontStyle=1" vertex="1" parent="7OSFac52b7fZNywMgHIq-589">
          <mxGeometry width="130" height="30" as="geometry">
            <mxRectangle width="130" height="30" as="alternateBounds" />
          </mxGeometry>
        </mxCell>
        <mxCell id="7OSFac52b7fZNywMgHIq-591" value="&lt;div style=&quot;text-align: left;&quot;&gt;&lt;span style=&quot;background-color: initial;&quot;&gt;data_en&lt;/span&gt;&lt;/div&gt;" style="shape=partialRectangle;html=1;whiteSpace=wrap;connectable=0;strokeColor=inherit;overflow=hidden;fillColor=none;top=0;left=0;bottom=0;right=0;pointerEvents=1;" vertex="1" parent="7OSFac52b7fZNywMgHIq-589">
          <mxGeometry x="130" width="660" height="30" as="geometry">
            <mxRectangle width="660" height="30" as="alternateBounds" />
          </mxGeometry>
        </mxCell>
        <mxCell id="7OSFac52b7fZNywMgHIq-592" value="" style="shape=tableRow;horizontal=0;startSize=0;swimlaneHead=0;swimlaneBody=0;strokeColor=inherit;top=0;left=0;bottom=0;right=0;collapsible=0;dropTarget=0;fillColor=none;points=[[0,0.5],[1,0.5]];portConstraint=eastwest;" vertex="1" parent="7OSFac52b7fZNywMgHIq-579">
          <mxGeometry y="149" width="790" height="30" as="geometry" />
        </mxCell>
        <mxCell id="7OSFac52b7fZNywMgHIq-593" value="&lt;span style=&quot;text-align: left;&quot;&gt;xram_addr&lt;/span&gt;&lt;div&gt;&lt;span style=&quot;text-align: left;&quot;&gt;(data_ram_addr)&lt;/span&gt;&lt;/div&gt;" style="shape=partialRectangle;html=1;whiteSpace=wrap;connectable=0;strokeColor=inherit;overflow=hidden;fillColor=none;top=0;left=0;bottom=0;right=0;pointerEvents=1;fontStyle=1" vertex="1" parent="7OSFac52b7fZNywMgHIq-592">
          <mxGeometry width="130" height="30" as="geometry">
            <mxRectangle width="130" height="30" as="alternateBounds" />
          </mxGeometry>
        </mxCell>
        <mxCell id="7OSFac52b7fZNywMgHIq-594" value="&lt;div style=&quot;text-align: left;&quot;&gt;data_ram write address&lt;/div&gt;" style="shape=partialRectangle;html=1;whiteSpace=wrap;connectable=0;strokeColor=inherit;overflow=hidden;fillColor=none;top=0;left=0;bottom=0;right=0;pointerEvents=1;" vertex="1" parent="7OSFac52b7fZNywMgHIq-592">
          <mxGeometry x="130" width="660" height="30" as="geometry">
            <mxRectangle width="660" height="30" as="alternateBounds" />
          </mxGeometry>
        </mxCell>
        <mxCell id="7OSFac52b7fZNywMgHIq-595" value="" style="shape=tableRow;horizontal=0;startSize=0;swimlaneHead=0;swimlaneBody=0;strokeColor=inherit;top=0;left=0;bottom=0;right=0;collapsible=0;dropTarget=0;fillColor=none;points=[[0,0.5],[1,0.5]];portConstraint=eastwest;" vertex="1" parent="7OSFac52b7fZNywMgHIq-579">
          <mxGeometry y="179" width="790" height="30" as="geometry" />
        </mxCell>
        <mxCell id="7OSFac52b7fZNywMgHIq-596" value="&lt;span style=&quot;text-align: left;&quot;&gt;sram_ptr&lt;/span&gt;&lt;div&gt;&lt;span style=&quot;text-align: left;&quot;&gt;(data_ptr)&lt;/span&gt;&lt;/div&gt;" style="shape=partialRectangle;html=1;whiteSpace=wrap;connectable=0;strokeColor=inherit;overflow=hidden;fillColor=none;top=0;left=0;bottom=0;right=0;pointerEvents=1;fontStyle=1" vertex="1" parent="7OSFac52b7fZNywMgHIq-595">
          <mxGeometry width="130" height="30" as="geometry">
            <mxRectangle width="130" height="30" as="alternateBounds" />
          </mxGeometry>
        </mxCell>
        <mxCell id="7OSFac52b7fZNywMgHIq-597" value="&lt;span style=&quot;text-align: left;&quot;&gt;data_ram read address&lt;/span&gt;" style="shape=partialRectangle;html=1;whiteSpace=wrap;connectable=0;strokeColor=inherit;overflow=hidden;fillColor=none;top=0;left=0;bottom=0;right=0;pointerEvents=1;" vertex="1" parent="7OSFac52b7fZNywMgHIq-595">
          <mxGeometry x="130" width="660" height="30" as="geometry">
            <mxRectangle width="660" height="30" as="alternateBounds" />
          </mxGeometry>
        </mxCell>
        <mxCell id="7OSFac52b7fZNywMgHIq-598" value="" style="shape=tableRow;horizontal=0;startSize=0;swimlaneHead=0;swimlaneBody=0;strokeColor=inherit;top=0;left=0;bottom=0;right=0;collapsible=0;dropTarget=0;fillColor=none;points=[[0,0.5],[1,0.5]];portConstraint=eastwest;" vertex="1" parent="7OSFac52b7fZNywMgHIq-579">
          <mxGeometry y="209" width="790" height="30" as="geometry" />
        </mxCell>
        <mxCell id="7OSFac52b7fZNywMgHIq-599" value="&lt;span style=&quot;text-align: left;&quot;&gt;tap_ptr&lt;/span&gt;" style="shape=partialRectangle;html=1;whiteSpace=wrap;connectable=0;strokeColor=inherit;overflow=hidden;fillColor=none;top=0;left=0;bottom=0;right=0;pointerEvents=1;fontStyle=1" vertex="1" parent="7OSFac52b7fZNywMgHIq-598">
          <mxGeometry width="130" height="30" as="geometry">
            <mxRectangle width="130" height="30" as="alternateBounds" />
          </mxGeometry>
        </mxCell>
        <mxCell id="7OSFac52b7fZNywMgHIq-600" value="&lt;span style=&quot;text-align: left;&quot;&gt;tap_ram read address&lt;/span&gt;" style="shape=partialRectangle;html=1;whiteSpace=wrap;connectable=0;strokeColor=inherit;overflow=hidden;fillColor=none;top=0;left=0;bottom=0;right=0;pointerEvents=1;" vertex="1" parent="7OSFac52b7fZNywMgHIq-598">
          <mxGeometry x="130" width="660" height="30" as="geometry">
            <mxRectangle width="660" height="30" as="alternateBounds" />
          </mxGeometry>
        </mxCell>
        <mxCell id="7OSFac52b7fZNywMgHIq-601" value="" style="shape=tableRow;horizontal=0;startSize=0;swimlaneHead=0;swimlaneBody=0;strokeColor=inherit;top=0;left=0;bottom=0;right=0;collapsible=0;dropTarget=0;fillColor=none;points=[[0,0.5],[1,0.5]];portConstraint=eastwest;" vertex="1" parent="7OSFac52b7fZNywMgHIq-579">
          <mxGeometry y="239" width="790" height="29" as="geometry" />
        </mxCell>
        <mxCell id="7OSFac52b7fZNywMgHIq-602" value="&lt;span style=&quot;text-align: left;&quot;&gt;cal_tap_final&lt;/span&gt;" style="shape=partialRectangle;html=1;whiteSpace=wrap;connectable=0;strokeColor=inherit;overflow=hidden;fillColor=none;top=0;left=0;bottom=0;right=0;pointerEvents=1;fontStyle=1" vertex="1" parent="7OSFac52b7fZNywMgHIq-601">
          <mxGeometry width="130" height="29" as="geometry">
            <mxRectangle width="130" height="29" as="alternateBounds" />
          </mxGeometry>
        </mxCell>
        <mxCell id="7OSFac52b7fZNywMgHIq-603" value="&lt;span style=&quot;text-align: left;&quot;&gt;tap_ptr == tap_count, it means final data calculate in a round.&lt;/span&gt;" style="shape=partialRectangle;html=1;whiteSpace=wrap;connectable=0;strokeColor=inherit;overflow=hidden;fillColor=none;top=0;left=0;bottom=0;right=0;pointerEvents=1;" vertex="1" parent="7OSFac52b7fZNywMgHIq-601">
          <mxGeometry x="130" width="660" height="29" as="geometry">
            <mxRectangle width="660" height="29" as="alternateBounds" />
          </mxGeometry>
        </mxCell>
        <mxCell id="7OSFac52b7fZNywMgHIq-604" value="" style="shape=tableRow;horizontal=0;startSize=0;swimlaneHead=0;swimlaneBody=0;strokeColor=inherit;top=0;left=0;bottom=0;right=0;collapsible=0;dropTarget=0;fillColor=none;points=[[0,0.5],[1,0.5]];portConstraint=eastwest;" vertex="1" parent="7OSFac52b7fZNywMgHIq-579">
          <mxGeometry y="268" width="790" height="30" as="geometry" />
        </mxCell>
        <mxCell id="7OSFac52b7fZNywMgHIq-605" value="&lt;span style=&quot;text-align: left;&quot;&gt;cal_x_data&lt;/span&gt;" style="shape=partialRectangle;html=1;whiteSpace=wrap;connectable=0;strokeColor=inherit;overflow=hidden;fillColor=none;top=0;left=0;bottom=0;right=0;pointerEvents=1;fontStyle=1" vertex="1" parent="7OSFac52b7fZNywMgHIq-604">
          <mxGeometry width="130" height="30" as="geometry">
            <mxRectangle width="130" height="30" as="alternateBounds" />
          </mxGeometry>
        </mxCell>
        <mxCell id="7OSFac52b7fZNywMgHIq-606" value="&lt;span style=&quot;text-align: left;&quot;&gt;tap_ptr == 0,&amp;nbsp;&lt;/span&gt;&lt;span style=&quot;text-align: left;&quot;&gt;, it means the first data calculate in a round.&lt;/span&gt;" style="shape=partialRectangle;html=1;whiteSpace=wrap;connectable=0;strokeColor=inherit;overflow=hidden;fillColor=none;top=0;left=0;bottom=0;right=0;pointerEvents=1;" vertex="1" parent="7OSFac52b7fZNywMgHIq-604">
          <mxGeometry x="130" width="660" height="30" as="geometry">
            <mxRectangle width="660" height="30" as="alternateBounds" />
          </mxGeometry>
        </mxCell>
        <mxCell id="7OSFac52b7fZNywMgHIq-607" value="" style="shape=tableRow;horizontal=0;startSize=0;swimlaneHead=0;swimlaneBody=0;strokeColor=inherit;top=0;left=0;bottom=0;right=0;collapsible=0;dropTarget=0;fillColor=none;points=[[0,0.5],[1,0.5]];portConstraint=eastwest;" vertex="1" parent="7OSFac52b7fZNywMgHIq-579">
          <mxGeometry y="298" width="790" height="30" as="geometry" />
        </mxCell>
        <mxCell id="7OSFac52b7fZNywMgHIq-608" value="tap_count" style="shape=partialRectangle;html=1;whiteSpace=wrap;connectable=0;strokeColor=inherit;overflow=hidden;fillColor=none;top=0;left=0;bottom=0;right=0;pointerEvents=1;fontStyle=1" vertex="1" parent="7OSFac52b7fZNywMgHIq-607">
          <mxGeometry width="130" height="30" as="geometry">
            <mxRectangle width="130" height="30" as="alternateBounds" />
          </mxGeometry>
        </mxCell>
        <mxCell id="7OSFac52b7fZNywMgHIq-609" value="To handle the data_ram data nums &amp;lt; 10 case, it will plus until 10." style="shape=partialRectangle;html=1;whiteSpace=wrap;connectable=0;strokeColor=inherit;overflow=hidden;fillColor=none;top=0;left=0;bottom=0;right=0;pointerEvents=1;" vertex="1" parent="7OSFac52b7fZNywMgHIq-607">
          <mxGeometry x="130" width="660" height="30" as="geometry">
            <mxRectangle width="660" height="30" as="alternateBounds" />
          </mxGeometry>
        </mxCell>
      </root>
    </mxGraphModel>
  </diagram>
</mxfile>
